<svg xmlns="http://www.w3.org/2000/svg" viewBox="0 0 400 140">
  <defs>
    <style>
      .cls-1 {
        fill: #d6f4fc;
      }

      .cls-12, .cls-2 {
        fill: #55d2f6;
      }

      .cls-15, .cls-3, .cls-8 {
        fill: #fff;
      }

      .cls-16, .cls-4, .cls-9 {
        fill: none;
      }

      .cls-18, .cls-5 {
        fill: #d1e55c;
      }

      .cls-17, .cls-6 {
        fill: #bad80a;
      }

      .cls-12, .cls-6, .cls-8 {
        fill-rule: evenodd;
      }

      .cls-7 {
        opacity: 0.3;
      }

      .cls-15, .cls-16, .cls-17, .cls-18, .cls-9 {
        stroke: #556a8a;
        stroke-miterlimit: 10;
        stroke-width: 2px;
      }

      .cls-9 {
        stroke-dasharray: 3 3;
      }

      .cls-10 {
        fill: #556a8a;
      }

      .cls-11 {
        fill: #80def9;
      }

      .cls-13 {
        fill: #5558af;
      }

      .cls-14 {
        fill: #2bc7f4;
      }

      .cls-19 {
        fill: #ff9f2b;
      }

      .cls-20 {
        fill: #ff8c00;
      }

      .cls-21 {
        fill: #e5e5e5;
      }

      .cls-22 {
        fill: #7779bd;
      }
    </style>
  </defs>
  <title>teams-fast-track</title>
  <g id="ICONS">
    <g>
      <path class="cls-1" d="M97.81,69.85a28.34,28.34,0,0,1,56-.89,19.29,19.29,0,0,1,31,9.8,16.86,16.86,0,1,1,4,33.23H93.87A21.56,21.56,0,0,1,77,90.92,21.08,21.08,0,0,1,97.81,69.85Z"/>
      <path class="cls-2" d="M266.55,55.66H266c0-20.1-16.31-35.72-36.56-35.72a35.86,35.86,0,0,0-36,31.25,25.73,25.73,0,0,0-19.69-9.49,25.12,25.12,0,1,0,0,50.23h92.8a18.17,18.17,0,0,0,18-18.42,17.7,17.7,0,0,0-18-17.86"/>
      <path class="cls-3" d="M155.26,50.26a.71.71,0,0,1-.8-.8c0-.54.4-.94.81-.81a.71.71,0,0,1,.8.8c.13.4-.27.81-.81.81"/>
      <circle class="cls-4" cx="200.63" cy="101.33" r="20.67"/>
      <g>
        <circle class="cls-5" cx="153" cy="43.5" r="22.5"/>
        <path class="cls-6" d="M137.09,27.59a22.5,22.5,0,0,0,31.82,31.82Z"/>
      </g>
      <g class="cls-7">
        <path class="cls-8" d="M253.41,47.86l-3.79-.54c-.27-.81-.27-1.62-.54-2.43L252.32,43a1,1,0,0,0,.54-1.35l-1.08-2.16c0-.54-.54-.81-1.08-.81l-3.79,1.08a5.89,5.89,0,0,0-1.35-2.16l2.17-3.24a.82.82,0,0,0,0-1.08l-1.89-1.89a.82.82,0,0,0-1.08,0l-3.25,2.16c-.54-.54-1.35-.81-1.89-1.35l.81-3.79c.27-.27,0-.81-.54-1.08l-2.17-.81a1.19,1.19,0,0,0-1.35.27L234.46,30c-.81-.27-1.62-.27-2.71-.54l-.54-3.79a.86.86,0,0,0-.81-.81h-2.71a.86.86,0,0,0-.81.81l-.54,3.79c-.81.27-1.62.27-2.44.54L222,26.77c-.27-.54-.81-.54-1.35-.54l-2.44,1.08c-.27,0-.54.54-.54,1.08l1.08,3.79a5.89,5.89,0,0,0-2.17,1.35l-3.25-2.16a.82.82,0,0,0-1.08,0l-1.89,1.89a.82.82,0,0,0,0,1.08l2.17,3.24c-.54.54-.81,1.35-1.35,1.89l-3.79-.81c-.27-.27-.81,0-1.08.54l-1.08,2.16c0,.54,0,1.08.54,1.35L209,44.61c-.27.81-.27,1.89-.54,2.7l-3.79.54a.86.86,0,0,0-.81.81v2.7a.72.72,0,0,0,.81.81l3.79.54a7.89,7.89,0,0,0,.54,2.43l-3.25,1.89a1,1,0,0,0-.54,1.35l1.08,2.43c0,.27.54.54,1.08.54l3.79-1.08a5.89,5.89,0,0,0,1.35,2.16l-2.17,3.24a1.21,1.21,0,0,0,0,1.35l1.89,1.62c.27.27.81.54,1.08.27l3.25-2.43a4.86,4.86,0,0,0,1.89,1.35l-.81,3.79c-.27.27,0,.81.54,1.08l2.17,1.08c.54,0,1.08,0,1.35-.54L223.63,70a8,8,0,0,0,2.71.54l.54,3.79a.86.86,0,0,0,.81.81h2.71a.86.86,0,0,0,.81-.81l.54-3.79a7.91,7.91,0,0,0,2.44-.54l1.89,3.24a1,1,0,0,0,1.35.54l2.44-1.08c.27,0,.54-.54.54-1.08l-1.08-3.79a5.89,5.89,0,0,0,2.17-1.35l3.25,2.43c.27.27.81,0,1.08-.27l1.89-1.62a1.21,1.21,0,0,0,0-1.35l-2.17-3.24a11.45,11.45,0,0,0,1.35-1.89l3.79,1.08a1.45,1.45,0,0,0,1.08-.81l1.08-2.16c0-.54,0-1.08-.54-1.35l-3.25-1.89c.27-.81.27-1.62.54-2.7l3.79-.54a.72.72,0,0,0,.81-.81v-2.7a.86.86,0,0,0-.81-.81Zm-8.93,6.22a1.25,1.25,0,0,1-1.89.81l-6.23-4.06c-.81-.27-.81-1.08,0-1.62l6.23-4.06a1.4,1.4,0,0,1,1.89.81A19.71,19.71,0,0,1,245,50a16.56,16.56,0,0,1-.54,4.06Zm-1.62-12.17A1.24,1.24,0,0,1,242,43.8l-7.31,1.62c-.81.27-1.35-.27-1.08-1.08l1.62-7.3c.27-1.08,1.08-1.35,1.89-.81a17.88,17.88,0,0,1,3.25,2.43,17.86,17.86,0,0,1,2.44,3.24ZM225,34.34a15.51,15.51,0,0,1,8.12,0,1.24,1.24,0,0,1,.81,1.89l-4.06,6.49c-.54.81-1.35.81-1.62,0l-4.06-6.49a1.24,1.24,0,0,1,.81-1.89ZM233.11,50A4.06,4.06,0,0,1,225,50a4.07,4.07,0,0,1,8.12,0ZM220.92,36a1.25,1.25,0,0,1,1.89.81l1.62,7.3c.27.81-.27,1.35-1.35,1.35l-7-1.89c-1.08-.27-1.35-1.08-.81-1.89a9.76,9.76,0,0,1,2.44-3.24A17.88,17.88,0,0,1,220.92,36Zm-7.58,17.85a16.56,16.56,0,0,1-.54-4.06,19.71,19.71,0,0,1,.54-4.06,1.16,1.16,0,0,1,1.89-.54l6.5,3.79a1,1,0,0,1,0,1.89l-6.5,3.79c-.81.54-1.62.27-1.89-.81ZM215,58.13a1.19,1.19,0,0,1,.81-1.89l7.31-1.89c.81-.27,1.35.27,1.35,1.35L222.55,63a1.4,1.4,0,0,1-1.89.81,17.88,17.88,0,0,1-3.25-2.43c-1.35-1.62-2.44-3.24-2.44-3.24Zm17.87,7.3a16.61,16.61,0,0,1-4.06.54,19.77,19.77,0,0,1-4.06-.54,1.4,1.4,0,0,1-.81-1.89L228,57.32c.54-.81,1.35-.81,1.62,0l4.06,6.22c.54.81.27,1.62-.81,1.89Zm4.06-1.62c-.81.54-1.62.27-1.89-.81l-1.62-7.3c-.27-.81.27-1.35,1.35-1.08L242,56.24a1.4,1.4,0,0,1,.81,1.89,17.86,17.86,0,0,1-2.44,3.24,28.06,28.06,0,0,1-3.52,2.43Z"/>
      </g>
      <g>
        <path class="cls-9" d="M70,86h32a24.07,24.07,0,0,0,24-24V41a24.07,24.07,0,0,1,24-24h6a24.07,24.07,0,0,1,24,24V99a24.07,24.07,0,0,0,24,24h7a24.07,24.07,0,0,0,24-24V87a24.07,24.07,0,0,1,24-24h78.83"/>
        <polygon class="cls-10" points="331.2 71.18 329.84 69.72 337.06 63 329.84 56.29 331.2 54.82 340 63 331.2 71.18"/>
      </g>
      <g>
        <circle class="cls-11" cx="82.5" cy="87" r="22.5"/>
        <path class="cls-12" d="M66.59,71.09a22.5,22.5,0,0,0,31.82,31.82Z"/>
      </g>
      <g>
        <path class="cls-13" d="M98.5,87.11c0,3.17-7.16,10.82-16,10.82s-16-7.65-16-10.82c0-3.47,7.16-10.11,16-10.11S98.5,83.94,98.5,87.11Z"/>
        <circle class="cls-3" cx="82.5" cy="88" r="7"/>
        <circle class="cls-14" cx="82.5" cy="88" r="5"/>
        <circle class="cls-3" cx="84" cy="84.5" r="2.5"/>
      </g>
      <rect class="cls-4" x="139.5" y="29" width="30" height="30"/>
      <path class="cls-15" d="M150,30.5V35l-2.5,1.49L145,35V30.5c-3,.68-3.75,3.21-3.75,5.25,0,2.33.75,4,3.75,4.7V56.14c0,1,1.54,2.14,2.5,2.14s2.5-1.13,2.5-2.23V40.45a5,5,0,0,0,3.75-4.7A6.2,6.2,0,0,0,150,30.5Z"/>
      <path class="cls-10" d="M163,46h-3V36l1-2-1.38-4.24h-1.24L157,34l1,2V46h-3v2h2c0,1-1.5,2-2,2v6a3.17,3.17,0,0,0,2.52,3h3A3.17,3.17,0,0,0,163,56V50c-.5,0-2-1-2-2h2Z"/>
      <rect class="cls-3" x="157" y="50" width="1" height="7"/>
      <rect class="cls-3" x="160" y="50" width="1" height="7"/>
      <g>
        <g>
          <circle class="cls-5" cx="208" cy="96.5" r="22.5"/>
          <path class="cls-6" d="M192.09,80.59a22.5,22.5,0,0,0,31.82,31.82Z"/>
        </g>
        <g>
          <g>
            <circle class="cls-16" cx="208" cy="86.25" r="3.75"/>
            <path class="cls-16" d="M202,96a6,6,0,0,1,12,0"/>
          </g>
          <circle class="cls-17" cx="201" cy="98.25" r="3.75"/>
          <path class="cls-16" d="M195,108a6,6,0,0,1,12,0"/>
        </g>
        <g>
          <circle class="cls-18" cx="215" cy="98.25" r="3.75"/>
          <path class="cls-16" d="M209,108a6,6,0,0,1,12,0"/>
        </g>
      </g>
      <g>
        <g>
          <g>
            <path class="cls-19" d="M259.91,106c-.76.25-1.57.48-2.41.71,5.06-21,15-17.21,15-17.21L274.16,91l.06.2C274.57,92.6,275.92,100.89,259.91,106Z"/>
            <path class="cls-20" d="M259.91,106c5-17.3,13.45-15,14.31-14.76C274.57,92.6,275.92,100.89,259.91,106Z"/>
            <polygon class="cls-10" points="275.01 95.18 267.94 88.11 273.59 86.69 276.25 89.36 275.01 95.18"/>
          </g>
          <polygon class="cls-10" points="276.42 79.51 257.33 78.81 254.5 75.98 270.76 68.2 277.56 70.75 276.42 79.51"/>
          <polygon class="cls-10" points="284.5 85.28 285.21 104.37 288.04 107.2 295.81 90.94 293.26 84.14 284.5 85.28"/>
          <g>
            <path class="cls-3" d="M280.69,93.7h-.21l-.17-.15L270.24,83l0-.25a41.74,41.74,0,0,1,11.45-20.28c9.15-9.1,30.47-12.92,31.38-13.08l.7-.12-.12.7s-.37,2.22-1.14,5.45c-2.08,8.74-5.8,20.4-11.73,26.36C291.58,91.11,281.54,93.7,280.69,93.7Z"/>
            <path class="cls-21" d="M312,56.69c-1.69,7.11-5.36,19.43-11.6,25.7-9.22,9.28-19.25,11.21-19.77,11.31L275,88.08s1.79-10.32,11.32-19.8C292.59,62.05,304.88,58.38,312,56.69Z"/>
            <path class="cls-22" d="M314,49a92,92,0,0,0-18.3,5.45l13.4,13.4A123.08,123.08,0,0,0,314,49Z"/>
            <path class="cls-16" d="M280.69,93.7h-.21l-.17-.15L270.24,83l0-.25a41.74,41.74,0,0,1,11.45-20.28c9.15-9.1,30.47-12.92,31.38-13.08l.7-.12-.12.7s-.37,2.22-1.14,5.45c-2.08,8.74-5.8,20.4-11.73,26.36C291.58,91.11,281.54,93.7,280.69,93.7Z"/>
          </g>
        </g>
        <circle class="cls-15" cx="290.5" cy="72.2" r="5"/>
      </g>
    </g>
  </g>
</svg>
