<svg xmlns="http://www.w3.org/2000/svg" viewBox="0 0 400 140">
  <defs>
    <style>
      .cls-1 {
        fill: #ddec85;
      }

      .cls-2 {
        fill: #d1e55c;
      }

      .cls-12, .cls-3, .cls-4, .cls-8 {
        fill: #fff;
      }

      .cls-3, .cls-6, .cls-8, .cls-9 {
        stroke: #556a8a;
      }

      .cls-3, .cls-6 {
        stroke-linecap: round;
        stroke-linejoin: round;
      }

      .cls-11, .cls-12, .cls-3, .cls-6, .cls-8, .cls-9 {
        stroke-width: 2px;
      }

      .cls-5 {
        fill: #2bc7f4;
      }

      .cls-11, .cls-6, .cls-9 {
        fill: none;
      }

      .cls-7 {
        fill: #e5e5e5;
      }

      .cls-11, .cls-12, .cls-8, .cls-9 {
        stroke-miterlimit: 10;
      }

      .cls-10 {
        fill: #d4f4fd;
      }

      .cls-11 {
        stroke: #7750a3;
      }

      .cls-12 {
        stroke: #2bc7f4;
      }

      .cls-13 {
        fill: #556a8a;
      }
    </style>
  </defs>
  <title>nuget-tools-reference</title>
  <g id="ICONS">
    <rect class="cls-1" x="64.5" y="67" width="271" height="6"/>
    <rect class="cls-2" x="64.5" y="82" width="271" height="6"/>
    <rect class="cls-2" x="64.5" y="52" width="271" height="6"/>
    <g>
      <rect class="cls-3" x="138" y="25" width="124" height="97"/>
      <path class="cls-4" d="M200,120a13.75,13.75,0,0,0-9-4H149V19h43c7,0,8,10,8,10s1-10,8-10h43v97H209a13.75,13.75,0,0,0-9,4"/>
      <rect class="cls-5" x="199" y="26" width="2" height="93.32"/>
      <path class="cls-6" d="M200,120a13.75,13.75,0,0,0-9-4H149V19h43c7,0,8,10,8,10s1-10,8-10h43v97H209a13.75,13.75,0,0,0-9,4"/>
      <rect class="cls-7" x="150" y="20" width="15" height="95"/>
      <rect class="cls-7" x="235" y="20" width="15" height="95"/>
    </g>
    <g>
      <g>
        <polygon class="cls-8" points="280.03 47.68 294.75 85.95 266.75 96.72 252.03 58.45 261 40 280.03 47.68"/>
        <circle class="cls-9" cx="266.03" cy="53.07" r="5" transform="translate(-1.32 99.04) rotate(-21.04)"/>
      </g>
      <polygon class="cls-4" points="276 54 276 95 246 95 246 54 261 40 276 54"/>
      <polygon class="cls-10" points="276 54 276 95 261 95 261 40 276 54"/>
      <polygon class="cls-9" points="276 54 276 95 246 95 246 54 261 40 276 54"/>
      <circle class="cls-9" cx="261" cy="54" r="5"/>
    </g>
    <polyline class="cls-11" points="258.5 77 253 82.5 258.5 88"/>
    <polyline class="cls-11" points="264 77 269.5 82.5 264 88"/>
    <g>
      <path class="cls-8" d="M171.11,73.63l4.47.67a17.31,17.31,0,0,0,.46,3l-3.69,2.38a1.17,1.17,0,0,0-.66,1.59L172.8,84a1,1,0,0,0,1.43.49l4.49-.94L180.14,86l-2.58,3.5a1.19,1.19,0,0,0,0,1.6l2.22,2.26a1.44,1.44,0,0,0,1.6,0l3.53-2.53c.8.48,1.76,1.12,2.55,1.61l-1,4.47a1.1,1.1,0,0,0,.62,1.29l2.72,1.13a1,1,0,0,0,1.45-.46l2.43-4a9.35,9.35,0,0,0,2.87.67l.61,4.48a1.1,1.1,0,0,0,1.11,1.13l3-.15c.48.16,1-.32,1.12-.79l.84-4.64a9.64,9.64,0,0,0,2.88-.61l2.38,4a1.59,1.59,0,0,0,1.43.49l2.89-1.26a1.09,1.09,0,0,0,.65-1.27l-1.1-4.34a5.66,5.66,0,0,0,.62-.42c.13-.09.27-.19.4-.3.47-.35.94-.74,1.4-1l3.66,2.74a1,1,0,0,0,1.44-.15l1.34-1.32.75-.75,0,0a1,1,0,0,0,.14-1.41l-2.69-3.7a13.13,13.13,0,0,0,1.78-2.71l4.46,1.3A1.42,1.42,0,0,0,227.2,84l1.13-2.72a1.39,1.39,0,0,0-.62-1.6l-3.83-2.27c.33-1,.33-1.92.66-2.87L229,74a1.42,1.42,0,0,0,1-1.28V69.83a1.36,1.36,0,0,0-.93-1.29L224.42,68a18.27,18.27,0,0,0-.61-3.21l4-2.37a1,1,0,0,0,.5-1.44l-1.11-2.72a1.49,1.49,0,0,0-1.43-.81l-4.5,1.25c-.47-.8-.94-1.61-1.42-2.41l2.75-3.66a1.48,1.48,0,0,0-.16-1.44L220.23,49a1.2,1.2,0,0,0-1.43-.17l-3.7,2.71c-.8-.5-1.75-1.14-2.55-1.62l1-4.48a1.07,1.07,0,0,0-.62-1.28L210,42.82a1.38,1.38,0,0,0-1.45.47l-2.26,3.84c-1,0-1.92-.33-2.88-.35L203,42.14a1.4,1.4,0,0,0-1.28-1l-3-.18a1.87,1.87,0,0,0-1.12,1.1l-.68,4.49c-1.12.15-2.08.47-3.2.61l-2.21-3.85a1.11,1.11,0,0,0-1.44-.49L187.32,44a1.3,1.3,0,0,0-.82,1.43l1.1,4.33a10.34,10.34,0,0,0-2.41,1.75l-3.67-2.75a1.07,1.07,0,0,0-1.61,0L178,50.63l-.17.16a1.09,1.09,0,0,0,0,1.6l2.69,3.7a7.16,7.16,0,0,0-1.37,1.85l-.12.22c-.1.2-.2.41-.29.63l-4.47-1.3a1.09,1.09,0,0,0-1.28.62L171.68,61a1.63,1.63,0,0,0,.47,1.45l4,2.42a7.93,7.93,0,0,0-.51,2.72l-4.65.76c-.47.17-1,.64-1,1l0,3.2A1.08,1.08,0,0,0,171.11,73.63Z"/>
      <path class="cls-12" d="M186.16,65.3A15,15,0,1,1,185,71.15,14.82,14.82,0,0,1,186.16,65.3Z"/>
      <path class="cls-13" d="M209.19,64.45l-2.83,2.83-2.4.42.28-2.55,2.83-2.83a5.11,5.11,0,0,0-5.09.85,4.24,4.24,0,0,0-.57,4.81l-9.69,9.69a1.44,1.44,0,0,0,.21,2.05,1.26,1.26,0,0,0,1.91.07l9.69-9.69a4.24,4.24,0,0,0,4.81-.57A5.11,5.11,0,0,0,209.19,64.45Z"/>
      <path class="cls-5" d="M199.39,70.92l-3.73-3.73-.71-2.12-3.54-2.12L190,64.35l2.12,3.54,2.12.71L198,72.33a2,2,0,0,0,.51,1.92l6.36,6.36a2,2,0,1,0,2.83-2.83l-6.36-6.36A2,2,0,0,0,199.39,70.92Z"/>
    </g>
  </g>
</svg>
