<svg xmlns="http://www.w3.org/2000/svg" viewBox="0 0 400 140">
  <defs>
    <style>
      .cls-1, .cls-6 {
        fill: none;
      }

      .cls-1, .cls-13, .cls-6 {
        stroke: #556a8a;
      }

      .cls-1, .cls-13, .cls-6, .cls-7 {
        stroke-miterlimit: 10;
        stroke-width: 2px;
      }

      .cls-1 {
        stroke-dasharray: 3 3;
      }

      .cls-2 {
        fill: #556a8a;
      }

      .cls-13, .cls-3, .cls-7 {
        fill: #fff;
      }

      .cls-4 {
        opacity: 0.4;
      }

      .cls-5 {
        fill: #868787;
      }

      .cls-7 {
        stroke: #2bc7f4;
      }

      .cls-8 {
        fill: #55d2f6;
        opacity: 0.8;
      }

      .cls-9 {
        fill: #ff9f2b;
      }

      .cls-10 {
        fill: #ff8c00;
      }

      .cls-11 {
        fill: #e5e5e5;
      }

      .cls-12 {
        fill: #bad80a;
      }
    </style>
  </defs>
  <title>biztalk-get-started-get-started</title>
  <g id="Screenshot">
    <g>
      <path class="cls-1" d="M188,17h84c16.5,0,30,11.93,30,26.5S288.5,70,272,70H191c-16.5,0-30,9.68-30,21.5S174.5,113,191,113H323.83"/>
      <polygon class="cls-2" points="317.2 121.18 315.84 119.72 323.06 113 315.84 106.29 317.2 104.82 326 113 317.2 121.18"/>
    </g>
    <g>
      <path class="cls-3" d="M272.11,65l.65-4.09a2.3,2.3,0,0,1,1.5-2.14c1.61-.3,4-.79,4.63,0l2.9,2.42a1.52,1.52,0,0,0,2,.17l2.16-2.2c.4-.47.49-.67.19-1.23L285,56l-1.09-1.72c-1-1.51,1.8-6.27,2.77-6.29l4,0a1.5,1.5,0,0,0,1.22-1.45l.06-3a1.83,1.83,0,0,0-1.15-1.56l-4-.35a2.1,2.1,0,0,1-1.8-1.79c-.34-.74-1.34-3.59-.42-4.66l2.76-2.94a1.5,1.5,0,0,0-.14-1.66L285,28a1.54,1.54,0,0,0-1.71-.19l-3.17,2.28c-1.21,1.13-2,.9-2.63.57-2.81-.81-3.19-1.74-3.3-3.07l-.34-4a2.07,2.07,0,0,0-1.16-1.57H269.3a1.84,1.84,0,0,0-1.58,1.14l-.34,4.05a2.47,2.47,0,0,1-1.82,2.18c-.66.07-2.89,1.45-4.35.06L258,27.09a.05.05,0,0,1,0,0,1.17,1.17,0,0,0-1.64-.2l-2.22,2-.27.25a1.48,1.48,0,0,0-.2,1.69l2.64,3.08c.58.76.26,3,.26,3-.43,3.06-2.11,3.27-3.1,3.29h-4a1.5,1.5,0,0,0-1.22,1.45l-.4,3.06a1.7,1.7,0,0,0,1.46,1.55l3.72.34a3.78,3.78,0,0,1,2.24,1.77c.06.64.44,1.27.5,1.94a2.26,2.26,0,0,1-.43,2.73l-2.45,2.9s0,0-.07.05a1.17,1.17,0,0,0-.13,1.64l2.24,2.49a1.85,1.85,0,0,0,2,.16L259.75,58c1.22-1.09,4.72.64,4.72.64A1.91,1.91,0,0,1,266,60.58l.39,3.94c.07,1,.8,1.62,1.15,1.58C267.51,66.1,271.63,66.64,272.11,65Zm4.5-16.38A7.64,7.64,0,0,1,275.38,50a8.09,8.09,0,0,1-11.26-.34l0,0-.13-.16a8.12,8.12,0,0,1,.81-11.33s0-.05.08-.06a7.72,7.72,0,0,1,10.85.43c.18.17.34.36.51.54A7.82,7.82,0,0,1,276.61,48.65Z"/>
      <g class="cls-4">
        <path class="cls-5" d="M272.11,65l.65-4.09a2.3,2.3,0,0,1,1.5-2.14c1.61-.3,4-.79,4.63,0l2.9,2.42a1.52,1.52,0,0,0,2,.17l2.16-2.2c.4-.47.49-.67.19-1.23L285,56l-8.38-7.37A7.64,7.64,0,0,1,275.38,50a8.09,8.09,0,0,1-11.26-.34l0,0-.13-.16a8.12,8.12,0,0,1,.81-11.33s0-.05.08-.06L254.1,28.84l-.27.25a1.48,1.48,0,0,0-.2,1.69l2.64,3.08c.58.76.26,3,.26,3-.43,3.06-2.11,3.27-3.1,3.29h-4a1.5,1.5,0,0,0-1.22,1.45l-.4,3.06a1.7,1.7,0,0,0,1.46,1.55l3.72.34a3.78,3.78,0,0,1,2.24,1.77c.06.64.44,1.27.5,1.94a2.26,2.26,0,0,1-.43,2.73l-2.45,2.9s0,0-.07.05a1.17,1.17,0,0,0-.13,1.64l2.24,2.49a1.85,1.85,0,0,0,2,.16L259.75,58c1.22-1.09,4.72.64,4.72.64A1.91,1.91,0,0,1,266,60.58l.39,3.94c.07,1,.8,1.62,1.15,1.58C267.51,66.1,271.63,66.64,272.11,65Z"/>
      </g>
      <path class="cls-6" d="M286.19,57.93c.29.55.21.75-.2,1.22l-2.16,2.2a1.51,1.51,0,0,1-2-.16l-2.9-2.42c-.67-.77-3-.28-4.63,0a2.29,2.29,0,0,0-1.5,2.14L272.12,65c-.47,1.61-4.62,1.07-4.62,1.07-.34,0-1.08-.54-1.15-1.58L266,60.57c0-.91-5-3.62-6.22-2.54l-2.83,2.25a1.88,1.88,0,0,1-2-.15l-2.23-2.49A1.16,1.16,0,0,1,252.8,56l.07-.06,2.44-2.9c.75-.7-1.36-6.16-2.3-6.44l-3.72-.35a1.71,1.71,0,0,1-1.47-1.55l.41-3.06a1.51,1.51,0,0,1,1.22-1.45h4c1,0,2.65-.23,3.09-3.29,0,0,.32-2.28-.26-3l-2.64-3.07a1.51,1.51,0,0,1,.19-1.7l2.49-2.23a1.16,1.16,0,0,1,1.63.21l0,0,3.23,2.4c1.47,1.39,3.7,0,4.35-.07a2.48,2.48,0,0,0,1.82-2.18l.34-4a1.85,1.85,0,0,1,1.58-1.15h3.38a2.09,2.09,0,0,1,1.15,1.58l.34,4c.11,1.33.49,2.26,3.3,3.06.66.33,1.41.56,2.64-.57l3.16-2.29A1.51,1.51,0,0,1,285,28l2.23,2.49a1.51,1.51,0,0,1,.15,1.66l-2.76,2.93c-.92,1.08,1.28,6.33,2.22,6.46l4,.34A1.83,1.83,0,0,1,292,43.5l-.07,3A1.51,1.51,0,0,1,290.71,48l-4,0c-1,0-3.82,4.78-2.77,6.29Z"/>
      <circle class="cls-6" cx="270.09" cy="44.14" r="8" transform="translate(-1.27 8.65) rotate(-1.83)"/>
    </g>
  </g>
  <g id="ICONS">
    <circle class="cls-7" cx="185.33" cy="69.33" r="53.5"/>
    <path class="cls-3" d="M194.55,63.71C193.53,51,183.6,41,171.49,41c-9,0-16.75,5.49-20.59,13.51a22.42,22.42,0,0,0-12.3-3.68c-10.92,0-20.12,7.93-22.89,18.71a20.94,20.94,0,0,0-6.65-1.08c-12,0-21.75,10.14-21.75,22.65a22.73,22.73,0,0,0,12.55,20.52,20,20,0,0,0,6.77,2l.55.05a125.83,125.83,0,0,0,13.92.88h70.36c1.56,0,3.09-.75,4.56-1.12,10.81-2.24,19-12.46,19-24.73C215,75.88,206.09,65.3,194.55,63.71Z"/>
    <path class="cls-8" d="M194.55,63.71C193.53,51,183.6,41,171.49,41c-9,0-16.75,5.49-20.59,13.51a22.42,22.42,0,0,0-12.3-3.68c-10.92,0-20.12,7.93-22.89,18.71a20.94,20.94,0,0,0-6.65-1.08c-12,0-21.75,10.14-21.75,22.65a22.73,22.73,0,0,0,12.55,20.52,20,20,0,0,0,6.77,2l.55.05a125.83,125.83,0,0,0,13.92.88h70.36c1.56,0,3.09-.75,4.56-1.12,10.81-2.24,19-12.46,19-24.73C215,75.88,206.09,65.3,194.55,63.71Z"/>
    <g>
      <g>
        <g>
          <path class="cls-9" d="M140.79,108.56c-.92.3-1.9.58-2.92.86C144,84,156.06,88.6,156.06,88.6l2,1.86.07.24C158.53,92.39,160.17,102.42,140.79,108.56Z"/>
          <path class="cls-10" d="M140.79,108.56c6-20.93,16.27-18.2,17.32-17.86C158.53,92.39,160.17,102.42,140.79,108.56Z"/>
          <polygon class="cls-2" points="159.06 95.51 150.51 86.95 157.35 85.24 160.56 88.46 159.06 95.51"/>
        </g>
        <polygon class="cls-2" points="160.77 76.55 137.67 75.7 134.25 72.27 153.93 62.86 162.15 65.95 160.77 76.55"/>
        <polygon class="cls-2" points="170.55 83.53 171.4 106.63 174.83 110.05 184.24 90.37 181.15 82.15 170.55 83.53"/>
        <g>
          <path class="cls-3" d="M165.94,93.72h-.26l-.2-.19L153.29,80.82l.05-.3A50.51,50.51,0,0,1,167.19,56c11.07-11,36.87-15.64,38-15.83L206,40l-.14.84s-.45,2.69-1.38,6.6c-2.51,10.57-7,24.68-14.2,31.9C179.11,90.59,167,93.72,165.94,93.72Z"/>
          <path class="cls-11" d="M203.82,48.94c-2,8.6-6.49,23.51-14,31.1-11.16,11.23-23.29,13.56-23.92,13.69l-6.8-6.8s2.17-12.49,13.7-24C180.34,55.42,195.21,51,203.82,48.94Z"/>
          <path class="cls-12" d="M204.91,41.57A124.48,124.48,0,0,0,184.69,47l14.77,14.77A124.48,124.48,0,0,0,204.91,41.57Z"/>
          <path class="cls-6" d="M165.94,93.72h-.26l-.2-.19L153.29,80.82l.05-.3A50.51,50.51,0,0,1,167.19,56c11.07-11,36.87-15.64,38-15.83L206,40l-.14.84s-.45,2.69-1.38,6.6c-2.51,10.57-7,24.68-14.2,31.9C179.11,90.59,167,93.72,165.94,93.72Z"/>
        </g>
      </g>
      <circle class="cls-13" cx="177.81" cy="67.7" r="6.05"/>
    </g>
  </g>
</svg>
