<svg xmlns="http://www.w3.org/2000/svg" viewBox="0 0 400 140"><defs><style>.cls-1,.cls-4{fill:none;}.cls-1,.cls-10,.cls-4{stroke:#556a8a;stroke-miterlimit:10;stroke-width:2px;}.cls-1{stroke-dasharray:3 3;}.cls-2{fill:#80def9;}.cls-10,.cls-3{fill:#fff;}.cls-5{fill:#e5e5e5;}.cls-6{fill:#556a8a;}.cls-7{fill:#ff9f2b;}.cls-8{fill:#ff8c00;}.cls-9{fill:#2bc7f4;}</style></defs><title>sql-get-started-understand</title><g id="ICONS"><circle class="cls-1" cx="187" cy="72.81" r="52.33"/><polygon class="cls-2" points="286.2 46.69 258.25 46.69 258.25 20.07 286.2 46.69"/><path class="cls-3" d="M258.32,21h-33A1.27,1.27,0,0,0,224,22.28v79.43a1.27,1.27,0,0,0,1.27,1.28h58.45a1.27,1.27,0,0,0,1.27-1.28V46.62Z"/><path class="cls-4" d="M258.32,21h-33A1.27,1.27,0,0,0,224,22.28v79.43a1.27,1.27,0,0,0,1.27,1.28h58.45a1.27,1.27,0,0,0,1.27-1.28V46.62Z"/><rect class="cls-5" x="225" y="22.14" width="21" height="79.86"/><path class="cls-6" d="M237.8,50.57V62H236V52.78a5.81,5.81,0,0,1-1.06.6,8.75,8.75,0,0,1-1.29.43V52.27l.87-.31q.42-.16.83-.37t.83-.45q.42-.25.86-.57Z"/><path class="cls-6" d="M240.07,78h-7v-.87a3.25,3.25,0,0,1,.15-1,4,4,0,0,1,.4-.87,4.84,4.84,0,0,1,.58-.77,9.86,9.86,0,0,1,.72-.7q.38-.34.78-.66l.78-.64q.36-.3.65-.6a3.89,3.89,0,0,0,.51-.6,2.73,2.73,0,0,0,.33-.66,2.34,2.34,0,0,0,.12-.75,2,2,0,0,0-.14-.78,1.51,1.51,0,0,0-.38-.55,1.64,1.64,0,0,0-.58-.34,2.29,2.29,0,0,0-.73-.11,3.39,3.39,0,0,0-1.4.32,4.79,4.79,0,0,0-1.36,1V67.62a5.68,5.68,0,0,1,.69-.45,4.73,4.73,0,0,1,.72-.32,4.47,4.47,0,0,1,.79-.19,5.85,5.85,0,0,1,.88-.06,4.46,4.46,0,0,1,1.37.2,2.93,2.93,0,0,1,1.05.58,2.58,2.58,0,0,1,.67,1,3.46,3.46,0,0,1,.24,1.33,4.14,4.14,0,0,1-.17,1.22,3.94,3.94,0,0,1-.48,1,5.23,5.23,0,0,1-.74.89q-.44.42-1,.87l-.9.71q-.45.35-.81.68a3.77,3.77,0,0,0-.58.66,1.19,1.19,0,0,0-.22.67v0h5Z"/><path class="cls-6" d="M233.25,93.53v-1.7a3.87,3.87,0,0,0,2.46.87,2.87,2.87,0,0,0,1.78-.51,1.63,1.63,0,0,0,.67-1.37q0-1.9-2.91-1.9h-.87V87.46h.83q2.58,0,2.58-1.79t-2-1.65a3.3,3.3,0,0,0-2.11.8V83.21a5.4,5.4,0,0,1,2.69-.64,3.6,3.6,0,0,1,2.39.75,2.39,2.39,0,0,1,.9,1.92,2.73,2.73,0,0,1-2.25,2.84v0a2.94,2.94,0,0,1,1.91.85,2.52,2.52,0,0,1,.7,1.82,3,3,0,0,1-1.13,2.43,4.56,4.56,0,0,1-3,.92A5.08,5.08,0,0,1,233.25,93.53Z"/><polyline class="cls-4" points="258 20.38 258 47 285.95 47"/><line class="cls-4" x1="249" y1="56" x2="276" y2="56"/><line class="cls-4" x1="249" y1="72" x2="276" y2="72"/><line class="cls-4" x1="249" y1="88" x2="276" y2="88"/><path class="cls-2" d="M194.55,63.71C193.53,51,183.6,41,171.49,41c-9,0-16.75,5.49-20.59,13.51a22.42,22.42,0,0,0-12.3-3.68c-10.92,0-20.12,7.93-22.89,18.71a20.94,20.94,0,0,0-6.65-1.08c-12,0-21.75,10.14-21.75,22.65a22.73,22.73,0,0,0,12.55,20.52,20,20,0,0,0,6.77,2l.55.05a125.83,125.83,0,0,0,13.92.88h70.36c1.56,0,3.09-.75,4.56-1.12,10.81-2.24,19-12.46,19-24.73C215,75.88,206.09,65.3,194.55,63.71Z"/><path class="cls-7" d="M140.79,108.56c-.92.3-1.9.58-2.92.86C144,84,156.06,88.6,156.06,88.6l2,1.86.07.24C158.53,92.39,160.17,102.42,140.79,108.56Z"/><path class="cls-8" d="M140.79,108.56c6-20.93,16.27-18.2,17.32-17.86C158.53,92.39,160.17,102.42,140.79,108.56Z"/><polygon class="cls-6" points="159.06 95.51 150.51 86.95 157.35 85.24 160.56 88.46 159.06 95.51"/><polygon class="cls-6" points="160.77 76.55 137.67 75.7 134.25 72.27 153.93 62.86 162.15 65.95 160.77 76.55"/><polygon class="cls-6" points="170.55 83.53 171.4 106.63 174.83 110.05 184.24 90.37 181.15 82.15 170.55 83.53"/><path class="cls-3" d="M165.94,93.72h-.26l-.2-.19L153.29,80.82l.05-.3A50.51,50.51,0,0,1,167.19,56c11.07-11,36.87-15.64,38-15.83L206,40l-.14.84s-.45,2.69-1.38,6.6c-2.51,10.57-7,24.68-14.2,31.9C179.11,90.59,167,93.72,165.94,93.72Z"/><path class="cls-5" d="M203.82,48.94c-2,8.6-6.49,23.51-14,31.1-11.16,11.23-23.29,13.56-23.92,13.69l-6.8-6.8s2.17-12.49,13.7-24C180.34,55.42,195.21,51,203.82,48.94Z"/><path class="cls-9" d="M204.91,41.57A124.48,124.48,0,0,0,184.69,47l14.77,14.77A124.48,124.48,0,0,0,204.91,41.57Z"/><path class="cls-4" d="M165.94,93.72h-.26l-.2-.19L153.29,80.82l.05-.3A50.51,50.51,0,0,1,167.19,56c11.07-11,36.87-15.64,38-15.83L206,40l-.14.84s-.45,2.69-1.38,6.6c-2.51,10.57-7,24.68-14.2,31.9C179.11,90.59,167,93.72,165.94,93.72Z"/><circle class="cls-10" cx="177.81" cy="67.7" r="6.05"/></g></svg>