<svg id="ICONS-64x" xmlns="http://www.w3.org/2000/svg" viewBox="0 0 64 64">
  <defs>
    <style>
      .cls-1 {
        fill: #fff;
      }

      .cls-2 {
        fill: #55d2f6;
      }

      .cls-3 {
        fill: none;
        stroke: #556a8a;
        stroke-miterlimit: 10;
        stroke-width: 2px;
      }

      .cls-4 {
        fill: #e5e5e5;
      }
    </style>
  </defs>
  <title>i_article</title>
  <polygon class="cls-1" points="55.5 20.21 55.5 63.5 8.5 63.5 8.5 0.5 34.8 0.5 55.5 20.21"/>
  <polygon class="cls-2" points="55.5 20.5 34.5 20.5 34.5 0.5 55.5 20.5"/>
  <path class="cls-3" d="M34.88,1H10A1,1,0,0,0,9,2V62a1,1,0,0,0,1,1H54a1,1,0,0,0,1-1V20.37Z"/>
  <rect class="cls-4" x="10" y="2" width="16" height="60"/>
  <polyline class="cls-3" points="34 1 34 21 55 21"/>
  <line class="cls-3" x1="16" y1="21" x2="29" y2="21"/>
  <line class="cls-3" x1="16" y1="30" x2="48" y2="30"/>
  <line class="cls-3" x1="16" y1="39" x2="48" y2="39"/>
  <line class="cls-3" x1="16" y1="48" x2="48" y2="48"/>
</svg>
