<svg id="ICONS-64x" xmlns="http://www.w3.org/2000/svg" viewBox="0 0 64 64">
  <defs>
    <style>
      .cls-1 {
        fill: #fff;
        stroke: #556a8a;
        stroke-miterlimit: 10;
        stroke-width: 2px;
      }

      .cls-2 {
        fill: #2bc7f4;
      }

      .cls-3 {
        fill: #556a8a;
      }
    </style>
  </defs>
  <title>i_code-automate</title>
  <path class="cls-1" d="M45.62,26.56,43.4,25.17c-.54-.26-.58-2.34-.65-2.74a1.37,1.37,0,0,1,1-1.69l2.17-1a1.24,1.24,0,0,0,.51-1.24l-.81-2.06a.77.77,0,0,0-1-.41l-.05,0-2.44.58c-1.53.49-3.68-2-3.12-3.27l.9-2.3a1.13,1.13,0,0,0-.48-1.33l-1.93-.67a1,1,0,0,0-1.22.29l-1.19,2.36a1.6,1.6,0,0,1-1.57.85c-.43-.06-1.51-.13-1.51-.13a1.65,1.65,0,0,1-1.5-.93L29.47,9a1,1,0,0,0-1.06-.39l-2.06.81a.77.77,0,0,0-.36,1v0l.46,2.62c.22.91-1.09,2.19-1.33,2.55a1.64,1.64,0,0,1-1.83.43l-2.49-1a1.22,1.22,0,0,0-1.15.59l-1,2a1.38,1.38,0,0,0,.59,1.15l2.26,1.39c.75.46.66,2.25.83,2.86,0,.49-.09,1-1.12,1.39l-2.29,1.19a1,1,0,0,0-.39,1.06l.81,2.06a1,1,0,0,0,.94.58l2.55-.76c.91-.22,1.29,0,1.55.44s1.81,2.2,1.61,2.79l-1,2.49a1.21,1.21,0,0,0,.59,1.14l1.81.86A1,1,0,0,0,28.62,36l1.21-2.37a1.59,1.59,0,0,1,1.56-.83l1.48.13c.63.16,1,.09,1.5.93l1.18,2.29s.67.48,1.07.38L38.56,36a1,1,0,0,0,.51-1.25l-.57-2.43a1.45,1.45,0,0,1,.5-1.73c.23-.38,1.55-1.76,2.13-1.54l3.09,1.12a1.18,1.18,0,0,0,1-.41l1-2A1,1,0,0,0,45.62,26.56ZM34.35,27.64a5.11,5.11,0,0,1-6.69-2.73q-.1-.23-.17-.47a5.25,5.25,0,0,1,3.08-6.67,5.32,5.32,0,0,1,7,2.88.74.74,0,0,1,0,.13A5.5,5.5,0,0,1,34.35,27.64Z"/>
  <path class="cls-2" d="M32.65,59a7.42,7.42,0,0,0,1.46,0,.74.74,0,0,0,.59-.76l.07-1.78a1,1,0,0,1,.72-1.09c.23-.21,1.53-.72,2-.36L39.15,56a.85.85,0,0,0,.79-.08L41,54.77a.77.77,0,0,0-.19-.9l-1.28-1.39a.91.91,0,0,1-.18-1.12s.52-1.77,1.26-1.89l1.69-.27a.88.88,0,0,0,.59-.76l-.16-1.57a.55.55,0,0,0-.62-.48h0l-1.79-.07a1.07,1.07,0,0,1-1.09-.72c-.21-.23-.31-.57-.52-.8a1.79,1.79,0,0,1,.06-1.34l1.07-1.41a.81.81,0,0,0-.07-1l-1.2-.83a.68.68,0,0,0-.89,0l-1.29,1.4a1.14,1.14,0,0,1-1.24.28,3.46,3.46,0,0,0-.88-.26s-.89-.6-1-1L33,38.68a.69.69,0,0,0-.65-.47l-1.57.16a.55.55,0,0,0-.48.62v0l-.19,1.89c0,1.12-1.17,1.31-1.41,1.53a1.17,1.17,0,0,1-1.34-.06L25.85,41.2a.87.87,0,0,0-.9.19l-1.06,1.19a1,1,0,0,0,.19.9l1.32,1.36c1.29.85-.22,2.79-1,2.87l-1.8.37a.7.7,0,0,0-.48.65l.16,1.57a.71.71,0,0,0,.53.58h1.9c.67,0,.88.26,1,.6a10,10,0,0,1,.52,1,1,1,0,0,1,.06,1.23l-1.18,1.52a.87.87,0,0,0,.19.9l1.08.94a.68.68,0,0,0,.89,0l1.29-1.4a1.14,1.14,0,0,1,1.24-.28l1,.38c.45,0,.66.25.86.93l.37,1.8S32,58.94,32.65,59ZM36.4,48.28a3.93,3.93,0,0,1-3.53,4.1,3.65,3.65,0,0,1-4.07-3.17q0-.17,0-.35a3.75,3.75,0,0,1,3.41-4,3.8,3.8,0,0,1,4.21,3.34v.07"/>
  <path class="cls-3" d="M48,58l.52,0a6,6,0,0,0,4.09-1.79c1-1,1.38-2.74,1.38-5.85v-9.6a11.68,11.68,0,0,1,2.1-6.56,5.9,5.9,0,0,1,3.2-2.51c-3.52-1.19-5.3-4.16-5.3-8.82V13.07c0-3.13-.42-4.9-1.4-5.91a6.24,6.24,0,0,0-4.17-1.8l-.49,0,.15-2,.51,0A8.26,8.26,0,0,1,54,5.77c1.37,1.41,2,3.59,2,7.3v9.76c0,4.21,1.7,6.58,5.19,7.24l.81.15V33.1l-.78.15a4.63,4.63,0,0,0-3.38,2A9.82,9.82,0,0,0,56,40.72v9.6c0,3.69-.58,5.85-2,7.25A7.86,7.86,0,0,1,48.76,60l-.48,0Z"/>
  <path class="cls-3" d="M16,58l-.52,0a6,6,0,0,1-4.09-1.79c-1-1-1.38-2.74-1.38-5.85v-9.6a11.68,11.68,0,0,0-2.1-6.56,5.9,5.9,0,0,0-3.2-2.51c3.52-1.19,5.3-4.16,5.3-8.82V13.07c0-3.13.42-4.9,1.4-5.91a6.24,6.24,0,0,1,4.17-1.8l.49,0-.15-2-.51,0A8.26,8.26,0,0,0,10,5.77c-1.37,1.41-2,3.59-2,7.3v9.76C8,27,6.3,29.42,2.81,30.07L2,30.23V33.1l.78.15a4.63,4.63,0,0,1,3.38,2A9.82,9.82,0,0,1,8,40.72v9.6c0,3.69.58,5.85,2,7.25A7.86,7.86,0,0,0,15.24,60l.48,0Z"/>
</svg>
