<svg xmlns="http://www.w3.org/2000/svg" viewBox="0 0 400 140">
  <defs>
    <style>
      .cls-1 {
        fill: #002050;
      }

      .cls-2 {
        fill: #e6e6e6;
      }

      .cls-3 {
        fill: #fff;
      }

      .cls-4 {
        fill: none;
        stroke: #002050;
        stroke-miterlimit: 10;
        stroke-width: 2px;
      }

      .cls-5 {
        fill: #00bcf2;
      }
    </style>
  </defs>
  <title>cortana-resources-samples</title>
  <g id="Titles">
    <g>
      <g>
        <polygon class="cls-1" points="259.13 128 142.13 128 149.44 120 252.28 120 259.13 128"/>
        <polygon class="cls-2" points="248.13 126 153.13 126 156.46 122 244.89 122 248.13 126"/>
        <polygon class="cls-1" points="226.13 108 174.13 108 168.13 115 232.13 115 226.13 108"/>
        <polygon class="cls-1" points="203.63 113 196.63 113 198.03 99 202.22 99 203.63 113"/>
        <rect class="cls-3" x="124.88" y="18.5" width="150" height="82" rx="4" ry="4" transform="translate(399.75 119) rotate(180)"/>
        <path class="cls-2" d="M274.88,23V35h-150V23a4,4,0,0,1,4-4H270.9A4,4,0,0,1,274.88,23Z"/>
        <rect class="cls-4" x="126" y="19" width="150" height="82" rx="4" ry="4" transform="translate(402 120) rotate(180)"/>
      </g>
      <g>
        <rect class="cls-5" x="190" y="42" width="22" height="10"/>
        <rect class="cls-5" x="190" y="56" width="22" height="10"/>
        <rect class="cls-5" x="190" y="70" width="22" height="10"/>
        <path class="cls-1" d="M217.14,88l.52,0a6,6,0,0,0,4.09-1.79c1-1,1.38-2.74,1.38-5.85v-9.6a11.68,11.68,0,0,1,2.1-6.56,5.9,5.9,0,0,1,3.2-2.51c-3.52-1.19-5.3-4.16-5.3-8.82V43.07c0-3.13-.42-4.9-1.4-5.91a6.24,6.24,0,0,0-4.17-1.8l-.49,0,.15-2,.51,0a8.26,8.26,0,0,1,5.44,2.4c1.37,1.41,2,3.59,2,7.3v9.76c0,4.21,1.7,6.58,5.19,7.24l.81.15V63.1l-.78.15a4.63,4.63,0,0,0-3.38,2,9.82,9.82,0,0,0-1.84,5.45v9.6c0,3.69-.58,5.85-2,7.25A7.86,7.86,0,0,1,217.89,90l-.48,0Z"/>
        <path class="cls-1" d="M185.11,88l-.52,0a6,6,0,0,1-4.09-1.79c-1-1-1.38-2.74-1.38-5.85v-9.6a11.68,11.68,0,0,0-2.1-6.56,5.9,5.9,0,0,0-3.2-2.51c3.52-1.19,5.3-4.16,5.3-8.82V43.07c0-3.13.42-4.9,1.4-5.91a6.24,6.24,0,0,1,4.17-1.8l.49,0-.15-2-.51,0a8.26,8.26,0,0,0-5.44,2.4c-1.37,1.41-2,3.59-2,7.3v9.76c0,4.21-1.7,6.58-5.19,7.24l-.81.15V63.1l.78.15a4.63,4.63,0,0,1,3.38,2,9.82,9.82,0,0,1,1.84,5.45v9.6c0,3.69.58,5.85,2,7.25A7.86,7.86,0,0,0,184.36,90l.48,0Z"/>
      </g>
    </g>
  </g>
</svg>
