<svg xmlns="https://www.w3.org/2000/svg" viewBox="-6788 -4193.37 240 243.26"><defs><style>.a{fill:#a4373a;}</style></defs><path class="a" d="M176,40q6.75,0,13.5.5T203,42q3,.49,7.5,1.44t9.5,2.43a95.621,95.621,0,0,1,10,3.63,51.82,51.82,0,0,1,9,4.87,27.18,27.18,0,0,1,6.5,6.13A12.28,12.28,0,0,1,248,68V188a12.28,12.28,0,0,1-2.5,7.5,27.18,27.18,0,0,1-6.5,6.13,51.821,51.821,0,0,1-9,4.87,95.624,95.624,0,0,1-10,3.63q-5,1.5-9.5,2.43T203,214q-6.75,1-13.5,1.5T176,216q-6,0-12-.44t-12-1.18v35.25L8,216.38V39.62L152,6.37V41.62q6-.75,12-1.18T176,40ZM90.13,172.63,111,173.88q-6.87-23.62-13.87-46.94T83.5,80L63,81.25,38.13,169.38l18.25,1.12,4.75-19.12,23.75.75ZM80.5,134.5,65,134.25l7.25-28.63a11.54,11.54,0,0,1,.5-1.87c0,.08.17.85.5,2.31s.77,3.25,1.31,5.38,1.15,4.43,1.82,6.93,1.26,4.88,1.81,7.13,1,4.21,1.5,5.88S80.42,134.08,80.5,134.5ZM176,88.37q6.38,0,12.5-.37t12.38-1.25q2.12-.25,5.81-.94t8.06-1.75q4.38-1.07,8.88-2.62a56.771,56.771,0,0,0,8.12-3.5,22.321,22.321,0,0,0,5.94-4.44,7.7,7.7,0,0,0,0-11,22.32,22.32,0,0,0-5.94-4.44,56.772,56.772,0,0,0-8.12-3.5q-4.5-1.56-8.88-2.62t-8.06-1.75q-3.69-.69-5.81-.94-6.25-.87-12.38-1.25T176,47.62q-6,0-12,.32t-12,1.18V86.87q6,.88,12,1.19T176,88.37ZM240,108V82a47.08,47.08,0,0,1-13.87,7.06,121.624,121.624,0,0,1-16.94,4.25,160.783,160.783,0,0,1-17.56,2.13Q182.87,96,176,96q-6,0-12-.38t-12-1v32.25q6,.88,12,1.19t12,.31q6.38,0,12.5-.37t12.38-1.25q2.12-.25,5.81-.94t8.06-1.75q4.38-1.07,8.88-2.62a56.77,56.77,0,0,0,8.12-3.5,22.321,22.321,0,0,0,5.94-4.44A8,8,0,0,0,240,108Zm0,40V122a47.08,47.08,0,0,1-13.87,7.06,120.226,120.226,0,0,1-16.94,4.25,158.358,158.358,0,0,1-17.56,2.13q-8.76.56-15.63.56-6,0-12-.37t-12-1v32.62q6,.87,12,1.19t12,.31q6.38,0,12.5-.37T200.88,167q2.12-.25,5.87-.94c2.5-.45,5.19-1.06,8.06-1.81s5.82-1.62,8.82-2.62a45.181,45.181,0,0,0,8.12-3.57,24.43,24.43,0,0,0,5.94-4.56A8,8,0,0,0,240,148Zm0,40V162a47.081,47.081,0,0,1-13.87,7.06,120.228,120.228,0,0,1-16.94,4.25,158.359,158.359,0,0,1-17.56,2.13q-8.76.56-15.63.56-6,0-12-.37t-12-1v32.25q6,.87,12,1.18t12,.32q6.38,0,12.5-.38t12.38-1.25q2.12-.25,5.81-.94c2.45-.45,5.14-1,8.06-1.75s5.88-1.58,8.88-2.62a56.771,56.771,0,0,0,8.12-3.5,22.32,22.32,0,0,0,5.94-4.44A8,8,0,0,0,240,188Z" transform="translate(-6796 -4199.74)"/></svg>