<svg xmlns="http://www.w3.org/2000/svg" viewBox="-7860 -2606.38 240 243.25"><defs><style>.a{fill:#107c10;}</style></defs><path class="a" d="M248,40V208a8.09,8.09,0,0,1-8,8H152v33.63L8,216.38V39.63L152,6.38V32h88a8.11,8.11,0,0,1,8,8ZM92.5,178.88l23.38,1.37-27-51.12,26.25-50.25-22,1.25L79.75,109.88a18.3,18.3,0,0,0-1.5,4.18c-.33,1.46-.71,2.9-1.12,4.32h-.25a28.92,28.92,0,0,0-1.07-4.19c-.46-1.38-.93-2.69-1.43-3.94L62.88,82,41.5,83.13,64.25,129.5,39.5,175.88,60.25,177l13.88-30.37c.08-.25.22-.69.43-1.32s.42-1.29.63-2,.39-1.37.56-2A5.791,5.791,0,0,0,76,140h.25c.17.67.31,1.33.44,2s.27,1.33.44,2a6.87,6.87,0,0,0,.87,2.5ZM240,208V40H152V56h24V72H152v8h24V96H152v8h24v16H152v8h24v16H152v8h24v16H152v8h24v16H152v16ZM224,56V72H184V56Zm0,24V96H184V80Zm0,24v16H184V104Zm0,24v16H184V128Zm0,24v16H184V152Zm0,24v16H184V176Z" transform="translate(-7868 -2612.76)"/></svg>