<svg id="ICONS-64x" xmlns="http://www.w3.org/2000/svg" viewBox="0 0 64 64">
  <defs>
    <style>
      .cls-1, .cls-3 {
        fill: none;
      }

      .cls-1, .cls-2, .cls-3 {
        stroke: #556a8a;
        stroke-miterlimit: 10;
        stroke-width: 2px;
      }

      .cls-1 {
        stroke-linecap: round;
      }

      .cls-2 {
        fill: #2bc7f4;
      }
    </style>
  </defs>
  <title>i_bug</title>
  <line class="cls-1" x1="37" y1="8" x2="42.33" y2="2.67"/>
  <line class="cls-1" x1="27" y1="8" x2="21.67" y2="2.67"/>
  <circle class="cls-2" cx="32" cy="13" r="8"/>
  <line class="cls-1" x1="42" y1="38" x2="60" y2="38"/>
  <line class="cls-1" x1="40.27" y1="28" x2="53" y2="15.27"/>
  <line class="cls-1" x1="24" y1="28" x2="11.27" y2="15.27"/>
  <line class="cls-1" x1="40.27" y1="49" x2="53" y2="61.73"/>
  <line class="cls-1" x1="24" y1="49" x2="11.27" y2="61.73"/>
  <line class="cls-1" x1="5" y1="38" x2="23" y2="38"/>
  <path class="cls-2" d="M50,34.41v8.18a18.13,18.13,0,0,1-1.44,7.18,18.91,18.91,0,0,1-3.85,5.83A18.7,18.7,0,0,1,39,59.54h0a17.53,17.53,0,0,1-14,0c-.34-.15-.66-.31-1-.48a18.43,18.43,0,0,1-4.7-3.46,18.76,18.76,0,0,1-3.86-5.83A18.13,18.13,0,0,1,14,42.59V34.41a18,18,0,0,1,1.45-7.13,19.22,19.22,0,0,1,3.87-5.82A18.52,18.52,0,0,1,24,18c.33-.18.67-.34,1-.5a17.22,17.22,0,0,1,14,0h0a18.6,18.6,0,0,1,5.68,4,19.66,19.66,0,0,1,3.87,5.82A18.08,18.08,0,0,1,50,34.41Z"/>
  <path class="cls-3" d="M32,61a17.16,17.16,0,0,1-7-1.46,18.5,18.5,0,0,1-5.7-3.94,18.86,18.86,0,0,1-3.86-5.83A18.21,18.21,0,0,1,14,42.59V34.41a17.88,17.88,0,0,1,1.45-7.13,19.31,19.31,0,0,1,3.87-5.83,18.81,18.81,0,0,1,5.69-4,17.25,17.25,0,0,1,14,0,18.58,18.58,0,0,1,5.7,4,19.39,19.39,0,0,1,3.87,5.82A18,18,0,0,1,50,34.41v8.18a18.21,18.21,0,0,1-1.44,7.18,18.84,18.84,0,0,1-3.85,5.83A18.49,18.49,0,0,1,39,59.54,17.15,17.15,0,0,1,32,61Z"/>
</svg>
