<svg id="ICONS-64x" xmlns="http://www.w3.org/2000/svg" viewBox="0 0 64 64">
  <defs>
    <style>
      .cls-1 {
        fill: #2bc7f4;
      }

      .cls-2 {
        fill: #fff;
      }

      .cls-3 {
        fill: #e5e5e5;
      }

      .cls-4 {
        fill: none;
        stroke: #556a8a;
        stroke-miterlimit: 10;
        stroke-width: 2px;
      }

      .cls-5 {
        fill: #556a8a;
      }
    </style>
  </defs>
  <title>i_support</title>
  <path class="cls-1" d="M60,22H30c0,3.31-8,6-8,6V51a4,4,0,0,0,4,4H48.47L57,63V55h3a4,4,0,0,0,4-4V26A4,4,0,0,0,60,22Z"/>
  <g>
    <path class="cls-2" d="M9,53V44H7c-2.48,0-5-2.18-5-4.56V5.84C2,3.44,4.54,2,7,2H53a3.64,3.64,0,0,1,4,3.84v33.6C57,41.8,55.5,44,53,44H19Z"/>
    <path class="cls-3" d="M56.65,5.58v28.5l-32-32h28.5A3.21,3.21,0,0,1,56.65,5.58Z"/>
    <path class="cls-4" d="M9,53V44H7c-2.48,0-5-2.18-5-4.56V5.84C2,3.44,4.54,2,7,2H53a3.64,3.64,0,0,1,4,3.84v33.6C57,41.8,55.5,44,53,44H19.19Z"/>
  </g>
  <path class="cls-5" d="M26.73,29.45A7.65,7.65,0,0,1,26.36,28a10.22,10.22,0,0,1-.15-1.75,5.48,5.48,0,0,1,.34-2,7.78,7.78,0,0,1,.9-1.69,11.16,11.16,0,0,1,1.3-1.53l1.54-1.48q.64-.6,1.24-1.22a8.8,8.8,0,0,0,1-1.33,7.22,7.22,0,0,0,.73-1.51,5.26,5.26,0,0,0,.28-1.73,4.67,4.67,0,0,0-.4-2,4.19,4.19,0,0,0-1.1-1.45,4.88,4.88,0,0,0-1.65-.9,6.6,6.6,0,0,0-2.05-.31,9,9,0,0,0-3.57.7,10.26,10.26,0,0,0-3.05,2.05V8.85A12.39,12.39,0,0,1,25,7.21a11.81,11.81,0,0,1,3.6-.54,10.08,10.08,0,0,1,3,.44,7.07,7.07,0,0,1,2.44,1.3,6.21,6.21,0,0,1,1.63,2.12,6.68,6.68,0,0,1,.6,2.91A7,7,0,0,1,36,15.66a8.29,8.29,0,0,1-.88,1.87,11.71,11.71,0,0,1-1.24,1.61q-.69.75-1.42,1.44-.92.88-1.62,1.58a11.7,11.7,0,0,0-1.17,1.34,5.37,5.37,0,0,0-.72,1.31,4.23,4.23,0,0,0-.25,1.48,7.28,7.28,0,0,0,.2,1.79,12.07,12.07,0,0,0,.42,1.36Zm1.33,8.94a2,2,0,0,1-.77-.15,1.94,1.94,0,0,1-.64-.43,2.2,2.2,0,0,1-.45-.66,1.9,1.9,0,0,1-.17-.81,2.08,2.08,0,0,1,.16-.83,2,2,0,0,1,.44-.64,2.16,2.16,0,0,1,.66-.43,2,2,0,0,1,.78-.16,2.11,2.11,0,0,1,.78.15,2.07,2.07,0,0,1,.67.43,2.15,2.15,0,0,1,.46.66,2,2,0,0,1,.17.83,1.92,1.92,0,0,1-.17.81,2.13,2.13,0,0,1-.46.66,2.05,2.05,0,0,1-.67.43A2.11,2.11,0,0,1,28.06,38.39Z"/>
</svg>
