<svg xmlns="http://www.w3.org/2000/svg" viewBox="-6788 -3898 240 242"><defs><style>.a{fill:#80397b;}</style></defs><path class="a" d="M248,48V96a8.83,8.83,0,0,1-1,4,8.83,8.83,0,0,1,1,4v48a8.83,8.83,0,0,1-1,4,8.83,8.83,0,0,1,1,4v48q0,3.5-1.62,5.19a8.5,8.5,0,0,1-4.07,2.31,18.85,18.85,0,0,1-5.25.56c-1.87,0-3.56-.06-5.06-.06a8.09,8.09,0,0,1-8,8H152v25L8,223.88v-191L152,7V32h72a8.11,8.11,0,0,1,8,8c1.5,0,3.19,0,5.06-.06a19.23,19.23,0,0,1,5.25.56,8.5,8.5,0,0,1,4.07,2.31A7.283,7.283,0,0,1,248,48ZM112.13,174.63V78.88l-18,1q0,16.13-.07,32.12t.07,32.13L58.38,81.88l-18.25.62v88.25l14.37.75V106.75L92.88,173.5ZM240,96V48H224V40H152V64h48v8H152V88h48v8H152v16h48v8H152v16h48v8H152v16h48v8H152v16h48v8H152v24h72V96Zm0,56V104h-8v48Zm0,56V160h-8v48Z" transform="translate(-6796 -3905)"/></svg>