<svg xmlns="https://www.w3.org/2000/svg" viewBox="-6788 -3604 240 242"><defs><style>.a{fill:#0078d7;}</style></defs><path class="a" d="M248,72V184a8.09,8.09,0,0,1-8,8H152v57L8,223.88v-191L152,7V64h88a8.11,8.11,0,0,1,8,8ZM120,127.25a65.875,65.875,0,0,0-2.247-17.047A49,49,0,0,0,110.88,95,35.7,35.7,0,0,0,99.06,84.13,33.42,33.42,0,0,0,82.13,80a41,41,0,0,0-18.69,4A37.66,37.66,0,0,0,50.31,94.75a46.54,46.54,0,0,0-7.75,15.63A67.14,67.14,0,0,0,40,129.13,61.52,61.52,0,0,0,42.56,147a44.73,44.73,0,0,0,7.63,14.94,36.77,36.77,0,0,0,12.69,10.25A39.22,39.22,0,0,0,80.63,176,35.559,35.559,0,0,0,93,173.88,36.61,36.61,0,0,0,103.38,168a40.48,40.48,0,0,0,8.06-8.87A49.92,49.92,0,0,0,117,148a45.85,45.85,0,0,0,2.38-10.19,91.732,91.732,0,0,0,.62-10.56ZM99.25,128.5a54.751,54.751,0,0,1-.94,9.81,31.85,31.85,0,0,1-3.25,9.5A21.45,21.45,0,0,1,88.88,155a15.72,15.72,0,0,1-9.63,2.88,17.82,17.82,0,0,1-10.19-2.75,20.79,20.79,0,0,1-6.5-7.07,32.44,32.44,0,0,1-3.5-9.56A52.079,52.079,0,0,1,58,128.13a53.75,53.75,0,0,1,1.06-10.57,31.17,31.17,0,0,1,3.57-9.62,20.7,20.7,0,0,1,6.68-7.06,18.57,18.57,0,0,1,10.44-2.75,14.79,14.79,0,0,1,9.56,3.06,21.64,21.64,0,0,1,6,7.62,36.72,36.72,0,0,1,3.07,9.88,61,61,0,0,1,.87,9.81ZM240,184V72H152v35.25c.42.42,1.38,1.36,2.88,2.81l5.31,5.19q3.06,3,6.44,6.38t6.31,6.18c1.95,1.88,3.58,3.42,4.87,4.63a10.051,10.051,0,0,0,2.19,1.81l.63-.25L240,76V94l-55.75,52.38a6.38,6.38,0,0,1-8.5,0L152,124v60Z" transform="translate(-6796 -3611)"/></svg>