<svg xmlns="http://www.w3.org/2000/svg" viewBox="-6788 -3323.38 240 243.25"><defs><style>.a{fill:#d24726;}</style></defs><path class="a" d="M248,48V208a8.09,8.09,0,0,1-8,8H152v33.63L8,216.38V39.63L152,6.38V40h88a8.11,8.11,0,0,1,8,8ZM111.63,108.88q0-14.88-7.32-23.19T81.63,77.38q-8.38,0-16.82.62T48,79.13V176.5l18.63,2.13V144c1.75-.17,3.51-.31,5.31-.44s3.6-.18,5.44-.18a37.65,37.65,0,0,0,13.93-2.5,31,31,0,0,0,10.82-7.07,32,32,0,0,0,7-10.93,38.18,38.18,0,0,0,2.5-14ZM90,110.13q0,7.88-3.87,12t-11.88,4.12H66.63V96c1.41-.17,2.87-.37,4.37-.62A27.339,27.339,0,0,1,75.5,95q7.5,0,11,3.94T90,110.13ZM240,208V48H152V82.88a30.38,30.38,0,0,1,10.81-8.07A32.16,32.16,0,0,1,176,72v32h32a31.1,31.1,0,0,1-2.5,12.44,32.17,32.17,0,0,1-17.06,17.06A31.1,31.1,0,0,1,176,136a32.16,32.16,0,0,1-13.19-2.81A30.35,30.35,0,0,1,152,125.13V152h64v8H152v16h64v8H152v24ZM184,64a31.1,31.1,0,0,1,12.44,2.5A32.26,32.26,0,0,1,213.5,83.56,31.1,31.1,0,0,1,216,96H184Z" transform="translate(-6796 -3329.76)"/></svg>