<svg xmlns="http://www.w3.org/2000/svg" viewBox="-6788 -3041.38 240 243.25"><defs><style>.a{fill:#31752f;}</style></defs><path class="a" d="M248,48V208a8.09,8.09,0,0,1-8,8H152v33.63L8,216.38V39.63L152,6.38V40h88a8.11,8.11,0,0,1,8,8ZM111.62,108.88q0-14.88-7.31-23.19T81.63,77.38q-8.38,0-16.82.62T48,79.13V176.5l18.63,2.13V144q4.13-.25,8.43-.31A61.458,61.458,0,0,0,83.5,143a30.72,30.72,0,0,0,11.81-3.94,31.61,31.61,0,0,0,8.81-7.62,33.89,33.89,0,0,0,5.57-10.31,38.2,38.2,0,0,0,1.93-12.25ZM90,110.13q0,7.88-3.87,12t-11.88,4.12H66.63V96c1.41-.17,2.87-.37,4.37-.62A27.339,27.339,0,0,1,75.5,95q7.5,0,11,3.94T90,110.13ZM240,208V48H152V72h48a7.53,7.53,0,0,1,8,8v40h10.38a5.33,5.33,0,0,1,4,1.69,5.65,5.65,0,0,1,1.62,4.06,5.32,5.32,0,0,1-1.62,3.88L200,152l-22.25-22.25a5.44,5.44,0,0,1-1.62-4,5.56,5.56,0,0,1,5.75-5.75H192V88H152v72l16-16,24,24-24,24-16-16v32Z" transform="translate(-6796 -3047.76)"/></svg>