<svg xmlns="http://www.w3.org/2000/svg" viewBox="0 0 64 64"><title>Visio_64x64</title><rect x="32" y="23.99966" width="15" height="15" rx="1.33" fill="#2b7cd3"/><path d="M38.61,24.43994l-6.17,6.16992A1.35426,1.35426,0,0,1,31.5,31a1.32431,1.32431,0,0,1-.94-.39014l-6.17-6.16992a1.33452,1.33452,0,0,1,0-1.87988l6.17-6.16992a1.32778,1.32778,0,0,1,1.88,0l6.17,6.16992A1.32766,1.32766,0,0,1,38.61,24.43994Z" fill="#41a5ee"/><path d="M39,38.5A7.48666,7.48666,0,0,1,25.52,43a5.84893,5.84893,0,0,1-.64-1,5.23106,5.23106,0,0,1-.44-1A7.14742,7.14742,0,0,1,24,38.5,7.50264,7.50264,0,0,1,31.5,31a4.09051,4.09051,0,0,1,.5.03027,5.57038,5.57038,0,0,1,1,.11963,5.72528,5.72528,0,0,1,1,.29A7.48633,7.48633,0,0,1,39,38.5Z" fill="#103f91"/><rect x="16" y="16" width="32" height="32" fill="none"/><path d="M34,24.33008V40.66992a1.32052,1.32052,0,0,1-1.04,1.29.95832.95832,0,0,1-.29.04H24.88a5.23106,5.23106,0,0,1-.44-1A7.14742,7.14742,0,0,1,24,38.5v-15a1.24142,1.24142,0,0,1,.1-.5h8.57A1.33592,1.33592,0,0,1,34,24.33008Z" opacity="0.1"/><path d="M33,25.33008V41.66992a.96789.96789,0,0,1-.04.29A1.32047,1.32047,0,0,1,31.67,43H25.52a5.84893,5.84893,0,0,1-.64-1,5.23106,5.23106,0,0,1-.44-1A7.14742,7.14742,0,0,1,24,38.5V24h7.67A1.33592,1.33592,0,0,1,33,25.33008Z" opacity="0.2"/><path d="M33,25.33008V39.66992A1.33592,1.33592,0,0,1,31.67,41H24.44A7.14742,7.14742,0,0,1,24,38.5V24h7.67A1.33592,1.33592,0,0,1,33,25.33008Z" opacity="0.2"/><path d="M32,25.33008V39.66992A1.33592,1.33592,0,0,1,30.67,41H24.44A7.14742,7.14742,0,0,1,24,38.5V24h6.67A1.33592,1.33592,0,0,1,32,25.33008Z" opacity="0.2"/><path d="M17.33333,24H30.66669A1.33334,1.33334,0,0,1,32,25.33334V38.66666A1.33333,1.33333,0,0,1,30.6667,40H17.33334A1.33334,1.33334,0,0,1,16,38.66666V25.33333A1.33333,1.33333,0,0,1,17.33333,24Z" fill="#185abd"/><path d="M23.49489,33.61639q.425,1.24714.50164,1.5746h.03484q.07664-.32747.54344-1.68607l2.23648-6.50042h2.05533l-3.79017,9.991H22.87481l-3.7414-9.991h2.118Z" fill="#fff"/></svg>