<svg xmlns="http://www.w3.org/2000/svg" viewBox="-6788 -2746.38 240 243.25"><defs><style>.a{fill:#2b579a;}</style></defs><path class="a" d="M248,40V216a8.09,8.09,0,0,1-8,8H152v25.63L8,216.38V39.63L152,6.38V32h88a8.11,8.11,0,0,1,8,8ZM107.75,168.5,129,77.38l-18.25,1L100,138.5c-.33,1.67-.61,3.31-.81,4.94a38.429,38.429,0,0,0-.31,4.94h-.13c-.17-1.59-.33-3.19-.5-4.82a48.118,48.118,0,0,0-.75-4.81L85.25,80,67.88,81l-12.5,56.25a35.849,35.849,0,0,0-.94,4.81,38.539,38.539,0,0,0-.31,4.94h-.38a46.14,46.14,0,0,0-.25-4.81c-.17-1.63-.37-3.23-.62-4.81l-9.38-55-15.75,1,16.88,81.5,17.5,1L74,111.38c.08-.42.17-.77.25-1.07s.17-.64.25-1.06a28.339,28.339,0,0,0,.5-3.75c.08-1.25.21-2.5.38-3.75h.25a37.171,37.171,0,0,0,.31,4.88c.2,1.58.48,3.16.81,4.75l12,56ZM240,216V40H152V64h64v8H152V88h64v8H152v16h64v8H152v16h64v8H152v16h64v8H152v16h64v8H152v24Z" transform="translate(-6796 -2752.76)"/></svg>