<?xml version="1.0" encoding="UTF-8" standalone="no"?>
<!DOCTYPE svg PUBLIC "-//W3C//DTD SVG 1.1//EN" "http://www.w3.org/Graphics/SVG/1.1/DTD/svg11.dtd">
<!-- Generated by Microsoft Visio, SVG Export Batch4.svg Page-1 -->
<svg xmlns="http://www.w3.org/2000/svg" xmlns:xlink="http://www.w3.org/1999/xlink" xmlns:ev="http://www.w3.org/2001/xml-events"
		xmlns:v="http://schemas.microsoft.com/visio/2003/SVGExtensions/" width="8.7066in" height="8.70226in"
		viewBox="0 0 626.875 626.563" xml:space="preserve" color-interpolation-filters="sRGB" class="st9">
	<v:documentProperties v:langID="1033" v:viewMarkup="false">
		<v:userDefs>
			<v:ud v:nameU="msvSubprocessMaster" v:prompt="" v:val="VT4(Rectangle)"/>
			<v:ud v:nameU="msvNoAutoConnect" v:val="VT0(1):26"/>
		</v:userDefs>
	</v:documentProperties>

	<style type="text/css">
	<![CDATA[
		.st1 {fill:#000000;stroke:#217346;stroke-width:0.25}
		.st2 {fill:#000000;stroke:none;stroke-width:0.25}
		.st3 {fill:none;stroke:none;stroke-width:0.25}
		.st4 {fill:#000000;font-family:Segoe UI;font-size:1.5em}
		.st5 {font-size:1em}
		.st6 {fill:#ffffff;font-family:Segoe UI;font-size:1.5em}
		.st7 {fill:#000000;stroke:#000000;stroke-width:0.25}
		.st8 {fill:#000000;stroke:#000000;stroke-width:0.75}
		.st9 {fill:none;fill-rule:evenodd;font-size:12px;overflow:visible;stroke-linecap:square;stroke-miterlimit:3}
	]]>
	</style>

	<g v:mID="0" v:index="1" v:groupContext="foregroundPage">
		<v:userDefs>
			<v:ud v:nameU="msvThemeOrder" v:val="VT0(0):26"/>
		</v:userDefs>
		<title>Page-1</title>
		<v:pageProperties v:drawingScale="1" v:pageScale="1" v:drawingUnits="0" v:shadowOffsetX="9" v:shadowOffsetY="-9"/>
		<g id="shape5-1" v:mID="5" v:groupContext="shape" transform="translate(28.6562,-436.188)">
			<title>Rectangle.5</title>
			<v:userDefs>
				<v:ud v:nameU="visVersion" v:val="VT0(15):26"/>
			</v:userDefs>
			<rect x="0" y="571.584" width="163.688" height="54.979" class="st1"/>
		</g>
		<g id="shape1-3" v:mID="1" v:groupContext="shape" transform="translate(28.6562,-496.938)">
			<title>Rectangle</title>
			<v:userDefs>
				<v:ud v:nameU="visVersion" v:val="VT0(15):26"/>
			</v:userDefs>
			<rect x="0" y="571.584" width="163.688" height="54.979" class="st2"/>
		</g>
		<g id="shape2-5" v:mID="2" v:groupContext="shape" transform="translate(18.25,-558.813)">
			<title>Sheet.2</title>
			<desc>Invocation Entries (function calls in Excel)</desc>
			<v:textBlock v:margins="rect(4,4,4,4)"/>
			<v:textRect cx="104.906" cy="601.813" width="209.82" height="49.5"/>
			<rect x="0" y="577.063" width="209.812" height="49.5" class="st3"/>
			<text x="4" y="596.41" class="st4" v:langID="1033"><v:paragraph/><v:tabList/>Invocation Entries<v:newlineChar/><tspan
						x="4" dy="1.2em" class="st5">(function calls in Excel)</tspan></text>		</g>
		<g id="shape3-9" v:mID="3" v:groupContext="shape" transform="translate(21.3438,-511.41)">
			<title>Sheet.3</title>
			<desc>=STOCK(‘MSFT’)</desc>
			<v:textBlock v:margins="rect(4,4,4,4)"/>
			<v:textRect cx="85.5" cy="613.546" width="171" height="26.0335"/>
			<rect x="0" y="600.529" width="171" height="26.0335" class="st3"/>
			<text x="20.74" y="618.95" class="st6" v:langID="1033"><v:paragraph v:horizAlign="1"/><v:tabList/>=STOCK(‘MSFT’)</text>		</g>
		<g id="shape6-12" v:mID="6" v:groupContext="shape" transform="translate(36.8125,-452.459)">
			<title>Sheet.6</title>
			<desc>=STOCK(‘GOOG’)</desc>
			<v:textBlock v:margins="rect(4,4,4,4)"/>
			<v:textRect cx="73.6875" cy="615.344" width="147.38" height="22.4367"/>
			<rect x="0" y="604.126" width="147.375" height="22.4367" class="st3"/>
			<text x="4.98" y="620.74" class="st6" v:langID="1033"><v:paragraph v:horizAlign="1"/><v:tabList/>=STOCK(‘GOOG’)</text>		</g>
		<g id="shape16-15" v:mID="16" v:groupContext="shape" transform="translate(28.6562,-373.188)">
			<title>Rectangle.16</title>
			<v:userDefs>
				<v:ud v:nameU="visVersion" v:val="VT0(15):26"/>
			</v:userDefs>
			<rect x="0" y="571.584" width="163.688" height="54.979" class="st7"/>
		</g>
		<g id="shape17-17" v:mID="17" v:groupContext="shape" transform="translate(36.8125,-389.459)">
			<title>Sheet.17</title>
			<desc>=STOCK(‘AMZN’)</desc>
			<v:textBlock v:margins="rect(4,4,4,4)"/>
			<v:textRect cx="73.6875" cy="615.344" width="147.38" height="22.4367"/>
			<rect x="0" y="604.126" width="147.375" height="22.4367" class="st3"/>
			<text x="5.15" y="620.74" class="st6" v:langID="1033"><v:paragraph v:horizAlign="1"/><v:tabList/>=STOCK(‘AMZN’)</text>		</g>
		<g id="shape65-20" v:mID="65" v:groupContext="shape" transform="translate(294.156,843.375) rotate(180)">
			<title>Simple Arrow.65</title>
			<v:userDefs>
				<v:ud v:nameU="visVersion" v:val="VT0(15):26"/>
				<v:ud v:nameU="ArrowType" v:prompt="" v:val="VT0(2):26"/>
			</v:userDefs>
			<path d="M0 626.56 L21.6 615.31 L21.6 620.94 L101.81 620.94 L101.81 626.56 L101.81 632.19 L21.6 632.19 L21.6 637.81 L0
						 626.56 Z" class="st8"/>
		</g>
		<g id="shape66-22" v:mID="66" v:groupContext="shape" transform="translate(294.156,780.375) rotate(180)">
			<title>Simple Arrow.66</title>
			<v:userDefs>
				<v:ud v:nameU="visVersion" v:val="VT0(15):26"/>
				<v:ud v:nameU="ArrowType" v:prompt="" v:val="VT0(2):26"/>
			</v:userDefs>
			<path d="M0 626.56 L21.6 615.31 L21.6 620.94 L101.81 620.94 L101.81 626.56 L101.81 632.19 L21.6 632.19 L21.6 637.81 L0
						 626.56 Z" class="st8"/>
		</g>
		<g id="shape67-24" v:mID="67" v:groupContext="shape" transform="translate(294.156,721.875) rotate(180)">
			<title>Simple Arrow.67</title>
			<v:userDefs>
				<v:ud v:nameU="visVersion" v:val="VT0(15):26"/>
				<v:ud v:nameU="ArrowType" v:prompt="" v:val="VT0(2):26"/>
			</v:userDefs>
			<path d="M0 626.56 L21.6 615.31 L21.6 620.94 L101.81 620.94 L101.81 626.56 L101.81 632.19 L21.6 632.19 L21.6 637.81 L0
						 626.56 Z" class="st8"/>
		</g>
		<g id="shape71-26" v:mID="71" v:groupContext="shape" transform="translate(294.906,-365)">
			<title>Rectangle.71</title>
			<v:userDefs>
				<v:ud v:nameU="visVersion" v:val="VT0(15):26"/>
			</v:userDefs>
			<rect x="0" y="433.771" width="311.625" height="192.791" class="st2"/>
		</g>
		<g id="shape72-28" v:mID="72" v:groupContext="shape" transform="translate(377.031,-547)">
			<title>Sheet.72</title>
			<desc>batchCopy Array</desc>
			<v:textBlock v:margins="rect(4,4,4,4)"/>
			<v:textRect cx="73.6875" cy="601.813" width="147.38" height="49.5"/>
			<rect x="0" y="577.063" width="147.375" height="49.5" class="st3"/>
			<text x="4" y="596.41" class="st4" v:langID="1033"><v:paragraph/><v:tabList/>batchCopy Array<v:newlineChar/></text>		</g>
		<g id="shape91-31" v:mID="91" v:groupContext="shape" transform="translate(330.062,-443.027)">
			<title>Sheet.91</title>
			<desc>‘MSFT’, unresolved Promise ‘GOOG’, unresolved Promise ‘AMZN’,...</desc>
			<v:textBlock v:margins="rect(4,4,4,4)"/>
			<v:textRect cx="120.656" cy="608.194" width="241.32" height="36.738"/>
			<rect x="0" y="589.825" width="241.312" height="36.738" class="st3"/>
			<text x="12.17" y="591.99" class="st6" v:langID="1033"><v:paragraph v:horizAlign="1"/><v:tabList/>‘MSFT’, unresolved Promise<v:newlineChar/><tspan
						x="8.22" dy="1.2em" class="st5">‘</tspan>GOOG’, unresolved Promise<v:newlineChar/><tspan x="8.39"
						dy="1.2em" class="st5">‘</tspan>AMZN’, unresolved Promise</text>		</g>
		<g id="shape92-36" v:mID="92" v:groupContext="shape" transform="translate(294.906,-149)">
			<title>Rectangle.92</title>
			<v:userDefs>
				<v:ud v:nameU="visVersion" v:val="VT0(15):26"/>
			</v:userDefs>
			<rect x="0" y="482.563" width="311.625" height="144" class="st2"/>
		</g>
		<g id="shape93-38" v:mID="93" v:groupContext="shape" transform="translate(373.75,-277.25)">
			<title>Sheet.93</title>
			<desc>requestBatch Array</desc>
			<v:textBlock v:margins="rect(4,4,4,4)"/>
			<v:textRect cx="85.5" cy="601.813" width="171" height="49.5"/>
			<rect x="0" y="577.063" width="171" height="49.5" class="st3"/>
			<text x="4" y="596.41" class="st4" v:langID="1033"><v:paragraph/><v:tabList/>requestBatch Array<v:newlineChar/></text>		</g>
		<g id="shape94-41" v:mID="94" v:groupContext="shape" transform="translate(378.25,-209.782)">
			<title>Sheet.94</title>
			<desc>‘MSFT’ ‘GOOG’ ‘AMZN’</desc>
			<v:textBlock v:margins="rect(4,4,4,4)"/>
			<v:textRect cx="73.6875" cy="615.344" width="147.38" height="22.4367"/>
			<rect x="0" y="604.126" width="147.375" height="22.4367" class="st3"/>
			<text x="47.59" y="599.14" class="st6" v:langID="1033"><v:paragraph v:horizAlign="1"/><v:tabList/>‘MSFT’<v:newlineChar/><tspan
						x="43.65" dy="1.2em" class="st5">‘</tspan>GOOG’<v:newlineChar/><tspan x="43.81" dy="1.2em" class="st5">‘</tspan>AMZN’</text>		</g>
		<g id="shape95-46" v:mID="95" v:groupContext="shape" transform="translate(-298.063,333.562) rotate(-90)">
			<title>Simple Arrow.95</title>
			<v:userDefs>
				<v:ud v:nameU="visVersion" v:val="VT0(15):26"/>
				<v:ud v:nameU="ArrowType" v:prompt="" v:val="VT0(2):26"/>
			</v:userDefs>
			<path d="M0 626.56 L21.6 615.31 L21.6 620.94 L72 620.94 L72 626.56 L72 632.19 L21.6 632.19 L21.6 637.81 L0 626.56 Z"
					class="st8"/>
		</g>
		<g id="shape97-48" v:mID="97" v:groupContext="shape" transform="translate(297,-18.25)">
			<title>Rectangle.97</title>
			<v:userDefs>
				<v:ud v:nameU="visVersion" v:val="VT0(15):26"/>
			</v:userDefs>
			<rect x="0" y="568.063" width="311.625" height="58.5" class="st2"/>
		</g>
		<g id="shape98-50" v:mID="98" v:groupContext="shape" transform="translate(432.719,-74.5)">
			<title>Sheet.98</title>
			<desc>API</desc>
			<v:textBlock v:margins="rect(4,4,4,4)"/>
			<v:textRect cx="18" cy="601.813" width="36" height="49.5"/>
			<rect x="0" y="577.063" width="36" height="49.5" class="st3"/>
			<text x="4" y="607.21" class="st4" v:langID="1033"><v:paragraph/><v:tabList/>API</text>		</g>
		<g id="shape99-53" v:mID="99" v:groupContext="shape" transform="translate(-298.063,550.262) rotate(-90)">
			<title>Simple Arrow.99</title>
			<v:userDefs>
				<v:ud v:nameU="visVersion" v:val="VT0(15):26"/>
				<v:ud v:nameU="ArrowType" v:prompt="" v:val="VT0(2):26"/>
			</v:userDefs>
			<path d="M0 626.56 L21.6 615.31 L21.6 620.94 L72.45 620.94 L72.45 626.56 L72.45 632.19 L21.6 632.19 L21.6 637.81 L0 626.56
						 Z" class="st8"/>
		</g>
		<g id="shape100-55" v:mID="100" v:groupContext="shape" transform="translate(982.063,477.813) rotate(90)">
			<title>Simple Arrow.100</title>
			<v:userDefs>
				<v:ud v:nameU="visVersion" v:val="VT0(15):26"/>
				<v:ud v:nameU="ArrowType" v:prompt="" v:val="VT0(2):26"/>
			</v:userDefs>
			<path d="M0 626.56 L21.6 615.31 L21.6 620.94 L88.65 620.94 L88.65 626.56 L88.65 632.19 L21.6 632.19 L21.6 637.81 L0 626.56
						 Z" class="st8"/>
		</g>
		<g id="shape101-57" v:mID="101" v:groupContext="shape" transform="translate(979.813,267.662) rotate(90)">
			<title>Simple Arrow.101</title>
			<v:userDefs>
				<v:ud v:nameU="visVersion" v:val="VT0(15):26"/>
				<v:ud v:nameU="ArrowType" v:prompt="" v:val="VT0(2):26"/>
			</v:userDefs>
			<path d="M0 626.56 L21.6 615.31 L21.6 620.94 L88.65 620.94 L88.65 626.56 L88.65 632.19 L21.6 632.19 L21.6 637.81 L0 626.56
						 Z" class="st8"/>
		</g>
		<g id="shape125-59" v:mID="125" v:groupContext="shape" transform="translate(193.5,-387.25)">
			<title>Simple Arrow.125</title>
			<v:userDefs>
				<v:ud v:nameU="visVersion" v:val="VT0(15):26"/>
				<v:ud v:nameU="ArrowType" v:prompt="" v:val="VT0(2):26"/>
			</v:userDefs>
			<path d="M0 626.56 L21.6 615.31 L21.6 620.94 L103.5 620.94 L103.5 626.56 L103.5 632.19 L21.6 632.19 L21.6 637.81 L0 626.56
						 Z" class="st8"/>
		</g>
		<g id="shape126-61" v:mID="126" v:groupContext="shape" transform="translate(192.344,-450.25)">
			<title>Simple Arrow.126</title>
			<v:userDefs>
				<v:ud v:nameU="visVersion" v:val="VT0(15):26"/>
				<v:ud v:nameU="ArrowType" v:prompt="" v:val="VT0(2):26"/>
			</v:userDefs>
			<path d="M0 626.56 L21.6 615.31 L21.6 620.94 L103.5 620.94 L103.5 626.56 L103.5 632.19 L21.6 632.19 L21.6 637.81 L0 626.56
						 Z" class="st8"/>
		</g>
		<g id="shape127-63" v:mID="127" v:groupContext="shape" transform="translate(193.5,-508.75)">
			<title>Simple Arrow.127</title>
			<v:userDefs>
				<v:ud v:nameU="visVersion" v:val="VT0(15):26"/>
				<v:ud v:nameU="ArrowType" v:prompt="" v:val="VT0(2):26"/>
			</v:userDefs>
			<path d="M0 626.56 L21.6 615.31 L21.6 620.94 L103.5 620.94 L103.5 626.56 L103.5 632.19 L21.6 632.19 L21.6 637.81 L0 626.56
						 Z" class="st8"/>
		</g>
	</g>
</svg>
