<svg width="40" height="40" xmlns="http://www.w3.org/2000/svg" xmlns:xlink="http://www.w3.org/1999/xlink" overflow="hidden"><defs><clipPath id="clip0"><rect x="0" y="0" width="40" height="40"/></clipPath></defs><g clip-path="url(#clip0)"><path d="M0.625 4.375 0.625 38.125 39.375 38.125 39.375 4.375Z" stroke="#556A8A" stroke-width="1.25" stroke-miterlimit="10" fill="#FFFFFF"/><path d="M24.0625 1.875C22.4866 1.81536 20.977 2.51209 20 3.75 19.023 2.51209 17.5134 1.81536 15.9375 1.875L5 1.875 5 33.75 15.9375 33.75C17.1464 33.7941 18.2808 34.3455 19.0625 35.2687 19.4688 35.725 20 36.25 20 36.25 20 36.25 20.5313 35.725 20.9375 35.2687 21.7192 34.3455 22.8536 33.7941 24.0625 33.75L35 33.75 35 1.875Z" stroke="#556A8A" stroke-width="1.25" stroke-miterlimit="10" fill="#FFFFFF"/><path d="M5.625 2.5 10.625 2.5 10.625 33.125 5.625 33.125Z" fill="#E5E5E5"/><path d="M29.375 2.5 34.375 2.5 34.375 33.125 29.375 33.125Z" fill="#E5E5E5"/><path d="M20.625 3.9625 20.625 34.6875 20.4688 34.8563 20 35.3563C19.85 35.2 19.6812 35.025 19.5313 34.8563L19.375 34.6875 19.375 3.95625Z" fill="#2BC7F4"/></g></svg>