<?xml version="1.0" encoding="UTF-8" standalone="no"?>
<!DOCTYPE svg PUBLIC "-//W3C//DTD SVG 1.1//EN" "http://www.w3.org/Graphics/SVG/1.1/DTD/svg11.dtd">
<!-- Generated by Microsoft Visio, SVG Export RuntimeDiagram.svg Page-1 -->
<svg xmlns="http://www.w3.org/2000/svg" xmlns:xlink="http://www.w3.org/1999/xlink" xmlns:ev="http://www.w3.org/2001/xml-events"
		xmlns:v="http://schemas.microsoft.com/visio/2003/SVGExtensions/" width="4.95603in" height="5.27815in"
		viewBox="0 0 356.834 380.027" xml:space="preserve" color-interpolation-filters="sRGB" class="st8">
	<v:documentProperties v:langID="1033" v:viewMarkup="false">
		<v:userDefs>
			<v:ud v:nameU="msvSubprocessMaster" v:prompt="" v:val="VT4(Rectangle)"/>
			<v:ud v:nameU="msvNoAutoConnect" v:val="VT0(1):26"/>
		</v:userDefs>
	</v:documentProperties>

	<style type="text/css">
	<![CDATA[
		.st1 {fill:url(#grad0-4);stroke:#000000;stroke-width:0.75}
		.st2 {fill:#000000;stroke:#000000;stroke-width:0.25}
		.st3 {fill:#c55a11;stroke:#c55a11;stroke-width:0.25}
		.st4 {fill:#feffff;font-family:Segoe UI;font-size:0.833336em}
		.st5 {fill:none;stroke:none;stroke-width:0.25}
		.st6 {fill:#ffffff;font-family:Segoe UI;font-size:1.00001em}
		.st7 {fill:#000000;stroke:#000000;stroke-width:0.75}
		.st8 {fill:none;fill-rule:evenodd;font-size:12px;overflow:visible;stroke-linecap:square;stroke-miterlimit:3}
	]]>
	</style>

	<defs id="Patterns_And_Gradients">
		<linearGradient id="grad0-4" x1="0" y1="0" x2="1" y2="0" gradientTransform="rotate(60 0.5 0.5)">
			<stop offset="0" stop-color="#e8ebf4" stop-opacity="1"/>
			<stop offset="0.24" stop-color="#f4f5f9" stop-opacity="1"/>
			<stop offset="0.54" stop-color="#feffff" stop-opacity="1"/>
		</linearGradient>
	</defs>
	<g v:mID="0" v:index="1" v:groupContext="foregroundPage">
		<v:userDefs>
			<v:ud v:nameU="msvThemeOrder" v:val="VT0(0):26"/>
		</v:userDefs>
		<title>Page-1</title>
		<v:pageProperties v:drawingScale="1" v:pageScale="1" v:drawingUnits="0" v:shadowOffsetX="9" v:shadowOffsetY="-9"/>
		<g id="shape4-1" v:mID="4" v:groupContext="shape" transform="translate(82.3327,-118.812)">
			<title>Square</title>
			<v:userDefs>
				<v:ud v:nameU="visVersion" v:val="VT0(15):26"/>
			</v:userDefs>
			<rect x="0" y="137.562" width="242.464" height="242.464" class="st1"/>
		</g>
		<g id="shape3-5" v:mID="3" v:groupContext="shape" transform="translate(232.597,-118.812)">
			<title>Rectangle</title>
			<v:userDefs>
				<v:ud v:nameU="visVersion" v:val="VT0(15):26"/>
			</v:userDefs>
			<rect x="0" y="137.562" width="105.968" height="242.464" class="st2"/>
		</g>
		<g id="shape39-7" v:mID="39" v:groupContext="shape" transform="translate(34.5,-138.377)">
			<title>Square.39</title>
			<v:userDefs>
				<v:ud v:nameU="visVersion" v:val="VT0(15):26"/>
			</v:userDefs>
			<rect x="0" y="204.227" width="175.8" height="175.8" class="st3"/>
		</g>
		<g id="shape5-9" v:mID="5" v:groupContext="shape" transform="translate(100.564,-239.998)">
			<title>Rectangle.5</title>
			<v:userDefs>
				<v:ud v:nameU="visVersion" v:val="VT0(15):26"/>
			</v:userDefs>
			<rect x="0" y="317.469" width="93.8361" height="62.5574" class="st2"/>
		</g>
		<g id="shape6-11" v:mID="6" v:groupContext="shape" transform="translate(104.4,-18.25)">
			<title>Rectangle.6</title>
			<desc>OfficeRuntime.AsyncStorage</desc>
			<v:userDefs>
				<v:ud v:nameU="visVersion" v:val="VT0(15):26"/>
			</v:userDefs>
			<v:textBlock v:margins="rect(4,4,4,4)"/>
			<v:textRect cx="117.092" cy="348.748" width="234.19" height="62.5574"/>
			<rect x="0" y="317.469" width="234.184" height="62.5574" class="st2"/>
			<text x="54.47" y="351.75" class="st4" v:langID="1033"><v:paragraph v:horizAlign="1"/><v:tabList/>OfficeRuntime.AsyncStorage</text>		</g>
		<g id="shape22-14" v:mID="22" v:groupContext="shape" transform="translate(250.318,-248.777)">
			<title>Sheet.22</title>
			<desc>Taskpane</desc>
			<v:textBlock v:margins="rect(4,4,4,4)"/>
			<v:textRect cx="36" cy="337.277" width="72.01" height="85.5"/>
			<rect x="0" y="294.527" width="72" height="85.5" class="st5"/>
			<text x="11.16" y="340.88" class="st6" v:langID="1033"><v:paragraph v:horizAlign="1"/><v:tabList/>Taskpane</text>		</g>
		<g id="shape23-17" v:mID="23" v:groupContext="shape" transform="translate(111.482,-257.777)">
			<title>Sheet.23</title>
			<desc>Excel Cell</desc>
			<v:textBlock v:margins="rect(4,4,4,4)"/>
			<v:textRect cx="36" cy="366.527" width="72" height="27"/>
			<rect x="0" y="353.027" width="72" height="27" class="st5"/>
			<text x="11.45" y="370.13" class="st6" v:langID="1033"><v:paragraph v:horizAlign="1"/><v:tabList/>Excel Cell</text>		</g>
		<g id="shape34-20" v:mID="34" v:groupContext="shape" transform="translate(-232.545,298.95) rotate(-90)">
			<title>Simple Arrow</title>
			<v:userDefs>
				<v:ud v:nameU="visVersion" v:val="VT0(15):26"/>
				<v:ud v:nameU="ArrowType" v:prompt="" v:val="VT0(2):26"/>
			</v:userDefs>
			<path d="M0 380.03 L21 368.03 L21 374.03 L158.92 374.03 L158.92 380.03 L158.92 386.02 L21 386.02 L21 392.02 L0 380.03
						 Z" class="st7"/>
		</g>
		<g id="shape35-22" v:mID="35" v:groupContext="shape" transform="translate(673.427,261.75) rotate(90)">
			<title>Simple Arrow.35</title>
			<v:userDefs>
				<v:ud v:nameU="visVersion" v:val="VT0(15):26"/>
				<v:ud v:nameU="ArrowType" v:prompt="" v:val="VT0(2):26"/>
			</v:userDefs>
			<path d="M0 380.03 L21 368.03 L21 374.03 L93 374.03 L93 380.03 L93 386.02 L21 386.02 L21 392.02 L0 380.03 Z"
					class="st7"/>
		</g>
		<g id="shape36-24" v:mID="36" v:groupContext="shape" transform="translate(52.8,-178.277)">
			<title>Rectangle.36</title>
			<v:userDefs>
				<v:ud v:nameU="visVersion" v:val="VT0(15):26"/>
			</v:userDefs>
			<rect x="0" y="332.027" width="72" height="48" class="st2"/>
		</g>
		<g id="shape37-26" v:mID="37" v:groupContext="shape" transform="translate(52.8,-188.777)">
			<title>Sheet.37</title>
			<desc>Dialog API</desc>
			<v:textBlock v:margins="rect(4,4,4,4)"/>
			<v:textRect cx="36" cy="366.527" width="72" height="27"/>
			<rect x="0" y="353.027" width="72" height="27" class="st5"/>
			<text x="8.31" y="370.13" class="st6" v:langID="1033"><v:paragraph v:horizAlign="1"/><v:tabList/>Dialog API</text>		</g>
		<g id="shape38-29" v:mID="38" v:groupContext="shape" transform="translate(432.677,198.75) rotate(90)">
			<title>Sharp Bent Arrow</title>
			<v:userDefs>
				<v:ud v:nameU="DblArrow" v:prompt="" v:val="VT0(0):5"/>
				<v:ud v:nameU="visVersion" v:prompt="" v:val="VT0(15):26"/>
			</v:userDefs>
			<path d="M0 380.03 L123.3 380.03 L123.3 344.93 L130.5 344.93 L116.1 330.53 L101.7 344.93 L108.9 344.93 L108.9 365.63
						 L0 365.63 L0 372.83 L0 380.03 Z" class="st7"/>
		</g>
		<g id="shape40-31" v:mID="40" v:groupContext="shape" transform="translate(-59.6266,297.75) rotate(-90)">
			<title>Simple Arrow.40</title>
			<v:userDefs>
				<v:ud v:nameU="visVersion" v:val="VT0(15):26"/>
				<v:ud v:nameU="ArrowType" v:prompt="" v:val="VT0(2):26"/>
			</v:userDefs>
			<path d="M0 380.03 L21 368.03 L21 374.03 L77.76 374.03 L77.76 380.03 L77.76 386.02 L21 386.02 L21 392.02 L0 380.03 Z"
					class="st7"/>
		</g>
		<g id="shape41-33" v:mID="41" v:groupContext="shape" transform="translate(547.427,140.029) rotate(90)">
			<title>Simple Arrow.41</title>
			<v:userDefs>
				<v:ud v:nameU="visVersion" v:val="VT0(15):26"/>
				<v:ud v:nameU="ArrowType" v:prompt="" v:val="VT0(2):26"/>
			</v:userDefs>
			<path d="M0 380.03 L21 368.03 L21 374.03 L178.8 374.03 L178.8 380.03 L178.8 386.02 L21 386.02 L21 392.02 L0 380.03 Z"
					class="st7"/>
		</g>
	</g>
</svg>
